<svg class="rich-terminal" viewBox="0 0 994 635.5999999999999" xmlns="http://www.w3.org/2000/svg">
    <!-- Generated with Rich https://www.textualize.io -->
    <style>

    @font-face {
        font-family: "Fira Code";
        src: local("FiraCode-Regular"),
                url("https://cdnjs.cloudflare.com/ajax/libs/firacode/6.2.0/woff2/FiraCode-Regular.woff2") format("woff2"),
                url("https://cdnjs.cloudflare.com/ajax/libs/firacode/6.2.0/woff/FiraCode-Regular.woff") format("woff");
        font-style: normal;
        font-weight: 400;
    }
    @font-face {
        font-family: "Fira Code";
        src: local("FiraCode-Bold"),
                url("https://cdnjs.cloudflare.com/ajax/libs/firacode/6.2.0/woff2/FiraCode-Bold.woff2") format("woff2"),
                url("https://cdnjs.cloudflare.com/ajax/libs/firacode/6.2.0/woff/FiraCode-Bold.woff") format("woff");
        font-style: bold;
        font-weight: 700;
    }

    .terminal-3223252755-matrix {
        font-family: Fira Code, monospace;
        font-size: 20px;
        line-height: 24.4px;
        font-variant-east-asian: full-width;
    }

    .terminal-3223252755-title {
        font-size: 18px;
        font-weight: bold;
        font-family: arial;
    }

    .terminal-3223252755-r1 { fill: #c5c8c6 }
.terminal-3223252755-r2 { fill: #e0e0e0 }
.terminal-3223252755-r3 { fill: #c5c6c7 }
.terminal-3223252755-r4 { fill: #0178d4 }
.terminal-3223252755-r5 { fill: #4f4f4f }
.terminal-3223252755-r6 { fill: #1e1e1e }
.terminal-3223252755-r7 { fill: #191919 }
.terminal-3223252755-r8 { fill: #ddedf9;font-weight: bold }
.terminal-3223252755-r9 { fill: #737373 }
.terminal-3223252755-r10 { fill: #e0e0e0;font-weight: bold }
.terminal-3223252755-r11 { fill: #003054 }
.terminal-3223252755-r12 { fill: #98e024 }
.terminal-3223252755-r13 { fill: #7f7f7f }
.terminal-3223252755-r14 { fill: #313131 }
.terminal-3223252755-r15 { fill: #f4005f }
.terminal-3223252755-r16 { fill: #c4c5b5 }
.terminal-3223252755-r17 { fill: #272727 }
.terminal-3223252755-r18 { fill: #ddedf9 }
.terminal-3223252755-r19 { fill: #ffa62b;font-weight: bold }
.terminal-3223252755-r20 { fill: #495259 }
    </style>

    <defs>
    <clipPath id="terminal-3223252755-clip-terminal">
      <rect x="0" y="0" width="975.0" height="584.5999999999999" />
    </clipPath>
    <clipPath id="terminal-3223252755-line-0">
    <rect x="0" y="1.5" width="976" height="24.65"/>
            </clipPath>
<clipPath id="terminal-3223252755-line-1">
    <rect x="0" y="25.9" width="976" height="24.65"/>
            </clipPath>
<clipPath id="terminal-3223252755-line-2">
    <rect x="0" y="50.3" width="976" height="24.65"/>
            </clipPath>
<clipPath id="terminal-3223252755-line-3">
    <rect x="0" y="74.7" width="976" height="24.65"/>
            </clipPath>
<clipPath id="terminal-3223252755-line-4">
    <rect x="0" y="99.1" width="976" height="24.65"/>
            </clipPath>
<clipPath id="terminal-3223252755-line-5">
    <rect x="0" y="123.5" width="976" height="24.65"/>
            </clipPath>
<clipPath id="terminal-3223252755-line-6">
    <rect x="0" y="147.9" width="976" height="24.65"/>
            </clipPath>
<clipPath id="terminal-3223252755-line-7">
    <rect x="0" y="172.3" width="976" height="24.65"/>
            </clipPath>
<clipPath id="terminal-3223252755-line-8">
    <rect x="0" y="196.7" width="976" height="24.65"/>
            </clipPath>
<clipPath id="terminal-3223252755-line-9">
    <rect x="0" y="221.1" width="976" height="24.65"/>
            </clipPath>
<clipPath id="terminal-3223252755-line-10">
    <rect x="0" y="245.5" width="976" height="24.65"/>
            </clipPath>
<clipPath id="terminal-3223252755-line-11">
    <rect x="0" y="269.9" width="976" height="24.65"/>
            </clipPath>
<clipPath id="terminal-3223252755-line-12">
    <rect x="0" y="294.3" width="976" height="24.65"/>
            </clipPath>
<clipPath id="terminal-3223252755-line-13">
    <rect x="0" y="318.7" width="976" height="24.65"/>
            </clipPath>
<clipPath id="terminal-3223252755-line-14">
    <rect x="0" y="343.1" width="976" height="24.65"/>
            </clipPath>
<clipPath id="terminal-3223252755-line-15">
    <rect x="0" y="367.5" width="976" height="24.65"/>
            </clipPath>
<clipPath id="terminal-3223252755-line-16">
    <rect x="0" y="391.9" width="976" height="24.65"/>
            </clipPath>
<clipPath id="terminal-3223252755-line-17">
    <rect x="0" y="416.3" width="976" height="24.65"/>
            </clipPath>
<clipPath id="terminal-3223252755-line-18">
    <rect x="0" y="440.7" width="976" height="24.65"/>
            </clipPath>
<clipPath id="terminal-3223252755-line-19">
    <rect x="0" y="465.1" width="976" height="24.65"/>
            </clipPath>
<clipPath id="terminal-3223252755-line-20">
    <rect x="0" y="489.5" width="976" height="24.65"/>
            </clipPath>
<clipPath id="terminal-3223252755-line-21">
    <rect x="0" y="513.9" width="976" height="24.65"/>
            </clipPath>
<clipPath id="terminal-3223252755-line-22">
    <rect x="0" y="538.3" width="976" height="24.65"/>
            </clipPath>
    </defs>

    <rect fill="#292929" stroke="rgba(255,255,255,0.35)" stroke-width="1" x="1" y="1" width="992" height="633.6" rx="8"/><text class="terminal-3223252755-title" fill="#c5c8c6" text-anchor="middle" x="496" y="27">RocotoApp</text>
            <g transform="translate(26,22)">
            <circle cx="0" cy="0" r="7" fill="#ff5f57"/>
            <circle cx="22" cy="0" r="7" fill="#febc2e"/>
            <circle cx="44" cy="0" r="7" fill="#28c840"/>
            </g>

    <g transform="translate(9, 41)" clip-path="url(#terminal-3223252755-clip-terminal)">
    <rect fill="#242f38" x="0" y="1.5" width="12.2" height="24.65" shape-rendering="crispEdges"/><rect fill="#242f38" x="12.2" y="1.5" width="12.2" height="24.65" shape-rendering="crispEdges"/><rect fill="#242f38" x="24.4" y="1.5" width="61" height="24.65" shape-rendering="crispEdges"/><rect fill="#242f38" x="85.4" y="1.5" width="12.2" height="24.65" shape-rendering="crispEdges"/><rect fill="#242f38" x="97.6" y="1.5" width="317.2" height="24.65" shape-rendering="crispEdges"/><rect fill="#242f38" x="414.8" y="1.5" width="109.8" height="24.65" shape-rendering="crispEdges"/><rect fill="#242f38" x="524.6" y="1.5" width="329.4" height="24.65" shape-rendering="crispEdges"/><rect fill="#2c363f" x="854" y="1.5" width="12.2" height="24.65" shape-rendering="crispEdges"/><rect fill="#2c363f" x="866.2" y="1.5" width="97.6" height="24.65" shape-rendering="crispEdges"/><rect fill="#2c363f" x="963.8" y="1.5" width="12.2" height="24.65" shape-rendering="crispEdges"/><rect fill="#272727" x="0" y="25.9" width="24.4" height="24.65" shape-rendering="crispEdges"/><rect fill="#272727" x="24.4" y="25.9" width="73.2" height="24.65" shape-rendering="crispEdges"/><rect fill="#272727" x="97.6" y="25.9" width="134.2" height="24.65" shape-rendering="crispEdges"/><rect fill="#1e1e1e" x="231.8" y="25.9" width="12.2" height="24.65" shape-rendering="crispEdges"/><rect fill="#1e1e1e" x="244" y="25.9" width="732" height="24.65" shape-rendering="crispEdges"/><rect fill="#272727" x="0" y="50.3" width="48.8" height="24.65" shape-rendering="crispEdges"/><rect fill="#272727" x="48.8" y="50.3" width="24.4" height="24.65" shape-rendering="crispEdges"/><rect fill="#272727" x="73.2" y="50.3" width="146.4" height="24.65" shape-rendering="crispEdges"/><rect fill="#272727" x="219.6" y="50.3" width="12.2" height="24.65" shape-rendering="crispEdges"/><rect fill="#1e1e1e" x="231.8" y="50.3" width="12.2" height="24.65" shape-rendering="crispEdges"/><rect fill="#1e1e1e" x="244" y="50.3" width="12.2" height="24.65" shape-rendering="crispEdges"/><rect fill="#191919" x="256.2" y="50.3" width="12.2" height="24.65" shape-rendering="crispEdges"/><rect fill="#1e1e1e" x="268.4" y="50.3" width="683.2" height="24.65" shape-rendering="crispEdges"/><rect fill="#1e1e1e" x="951.6" y="50.3" width="12.2" height="24.65" shape-rendering="crispEdges"/><rect fill="#1e1e1e" x="963.8" y="50.3" width="12.2" height="24.65" shape-rendering="crispEdges"/><rect fill="#272727" x="0" y="74.7" width="48.8" height="24.65" shape-rendering="crispEdges"/><rect fill="#272727" x="48.8" y="74.7" width="48.8" height="24.65" shape-rendering="crispEdges"/><rect fill="#0178d4" x="97.6" y="74.7" width="122" height="24.65" shape-rendering="crispEdges"/><rect fill="#0178d4" x="219.6" y="74.7" width="12.2" height="24.65" shape-rendering="crispEdges"/><rect fill="#1e1e1e" x="231.8" y="74.7" width="12.2" height="24.65" shape-rendering="crispEdges"/><rect fill="#1e1e1e" x="244" y="74.7" width="12.2" height="24.65" shape-rendering="crispEdges"/><rect fill="#191919" x="256.2" y="74.7" width="12.2" height="24.65" shape-rendering="crispEdges"/><rect fill="#1e1e1e" x="268.4" y="74.7" width="24.4" height="24.65" shape-rendering="crispEdges"/><rect fill="#1e1e1e" x="292.8" y="74.7" width="280.6" height="24.65" shape-rendering="crispEdges"/><rect fill="#1e1e1e" x="573.4" y="74.7" width="353.8" height="24.65" shape-rendering="crispEdges"/><rect fill="#1e1e1e" x="927.2" y="74.7" width="24.4" height="24.65" shape-rendering="crispEdges"/><rect fill="#1e1e1e" x="951.6" y="74.7" width="12.2" height="24.65" shape-rendering="crispEdges"/><rect fill="#1e1e1e" x="963.8" y="74.7" width="12.2" height="24.65" shape-rendering="crispEdges"/><rect fill="#272727" x="0" y="99.1" width="48.8" height="24.65" shape-rendering="crispEdges"/><rect fill="#272727" x="48.8" y="99.1" width="48.8" height="24.65" shape-rendering="crispEdges"/><rect fill="#272727" x="97.6" y="99.1" width="134.2" height="24.65" shape-rendering="crispEdges"/><rect fill="#1e1e1e" x="231.8" y="99.1" width="12.2" height="24.65" shape-rendering="crispEdges"/><rect fill="#1e1e1e" x="244" y="99.1" width="12.2" height="24.65" shape-rendering="crispEdges"/><rect fill="#191919" x="256.2" y="99.1" width="12.2" height="24.65" shape-rendering="crispEdges"/><rect fill="#1e1e1e" x="268.4" y="99.1" width="683.2" height="24.65" shape-rendering="crispEdges"/><rect fill="#1e1e1e" x="951.6" y="99.1" width="12.2" height="24.65" shape-rendering="crispEdges"/><rect fill="#1e1e1e" x="963.8" y="99.1" width="12.2" height="24.65" shape-rendering="crispEdges"/><rect fill="#272727" x="0" y="123.5" width="48.8" height="24.65" shape-rendering="crispEdges"/><rect fill="#272727" x="48.8" y="123.5" width="48.8" height="24.65" shape-rendering="crispEdges"/><rect fill="#272727" x="97.6" y="123.5" width="134.2" height="24.65" shape-rendering="crispEdges"/><rect fill="#1e1e1e" x="231.8" y="123.5" width="12.2" height="24.65" shape-rendering="crispEdges"/><rect fill="#1e1e1e" x="244" y="123.5" width="732" height="24.65" shape-rendering="crispEdges"/><rect fill="#272727" x="0" y="147.9" width="48.8" height="24.65" shape-rendering="crispEdges"/><rect fill="#272727" x="48.8" y="147.9" width="48.8" height="24.65" shape-rendering="crispEdges"/><rect fill="#272727" x="97.6" y="147.9" width="134.2" height="24.65" shape-rendering="crispEdges"/><rect fill="#1e1e1e" x="231.8" y="147.9" width="12.2" height="24.65" shape-rendering="crispEdges"/><rect fill="#242f38" x="244" y="147.9" width="170.8" height="24.65" shape-rendering="crispEdges"/><rect fill="#242f38" x="414.8" y="147.9" width="134.2" height="24.65" shape-rendering="crispEdges"/><rect fill="#242f38" x="549" y="147.9" width="97.6" height="24.65" shape-rendering="crispEdges"/><rect fill="#242f38" x="646.6" y="147.9" width="134.2" height="24.65" shape-rendering="crispEdges"/><rect fill="#242f38" x="780.8" y="147.9" width="73.2" height="24.65" shape-rendering="crispEdges"/><rect fill="#242f38" x="854" y="147.9" width="85.4" height="24.65" shape-rendering="crispEdges"/><rect fill="#242f38" x="939.4" y="147.9" width="12.2" height="24.65" shape-rendering="crispEdges"/><rect fill="#003054" x="951.6" y="147.9" width="24.4" height="24.65" shape-rendering="crispEdges"/><rect fill="#272727" x="0" y="172.3" width="48.8" height="24.65" shape-rendering="crispEdges"/><rect fill="#272727" x="48.8" y="172.3" width="48.8" height="24.65" shape-rendering="crispEdges"/><rect fill="#272727" x="97.6" y="172.3" width="134.2" height="24.65" shape-rendering="crispEdges"/><rect fill="#1e1e1e" x="231.8" y="172.3" width="12.2" height="24.65" shape-rendering="crispEdges"/><rect fill="#003054" x="244" y="172.3" width="12.2" height="24.65" shape-rendering="crispEdges"/><rect fill="#003054" x="256.2" y="172.3" width="12.2" height="24.65" shape-rendering="crispEdges"/><rect fill="#003054" x="268.4" y="172.3" width="12.2" height="24.65" shape-rendering="crispEdges"/><rect fill="#003054" x="280.6" y="172.3" width="12.2" height="24.65" shape-rendering="crispEdges"/><rect fill="#003054" x="292.8" y="172.3" width="12.2" height="24.65" shape-rendering="crispEdges"/><rect fill="#003054" x="305" y="172.3" width="12.2" height="24.65" shape-rendering="crispEdges"/><rect fill="#003054" x="317.2" y="172.3" width="12.2" height="24.65" shape-rendering="crispEdges"/><rect fill="#003054" x="329.4" y="172.3" width="12.2" height="24.65" shape-rendering="crispEdges"/><rect fill="#003054" x="341.6" y="172.3" width="12.2" height="24.65" shape-rendering="crispEdges"/><rect fill="#003054" x="353.8" y="172.3" width="12.2" height="24.65" shape-rendering="crispEdges"/><rect fill="#003054" x="366" y="172.3" width="12.2" height="24.65" shape-rendering="crispEdges"/><rect fill="#003054" x="378.2" y="172.3" width="12.2" height="24.65" shape-rendering="crispEdges"/><rect fill="#003054" x="390.4" y="172.3" width="12.2" height="24.65" shape-rendering="crispEdges"/><rect fill="#003054" x="402.6" y="172.3" width="12.2" height="24.65" shape-rendering="crispEdges"/><rect fill="#003054" x="414.8" y="172.3" width="12.2" height="24.65" shape-rendering="crispEdges"/><rect fill="#003054" x="427" y="172.3" width="12.2" height="24.65" shape-rendering="crispEdges"/><rect fill="#003054" x="439.2" y="172.3" width="12.2" height="24.65" shape-rendering="crispEdges"/><rect fill="#003054" x="451.4" y="172.3" width="12.2" height="24.65" shape-rendering="crispEdges"/><rect fill="#003054" x="463.6" y="172.3" width="12.2" height="24.65" shape-rendering="crispEdges"/><rect fill="#003054" x="475.8" y="172.3" width="12.2" height="24.65" shape-rendering="crispEdges"/><rect fill="#003054" x="488" y="172.3" width="12.2" height="24.65" shape-rendering="crispEdges"/><rect fill="#003054" x="500.2" y="172.3" width="12.2" height="24.65" shape-rendering="crispEdges"/><rect fill="#003054" x="512.4" y="172.3" width="12.2" height="24.65" shape-rendering="crispEdges"/><rect fill="#003054" x="524.6" y="172.3" width="12.2" height="24.65" shape-rendering="crispEdges"/><rect fill="#003054" x="536.8" y="172.3" width="12.2" height="24.65" shape-rendering="crispEdges"/><rect fill="#003054" x="549" y="172.3" width="12.2" height="24.65" shape-rendering="crispEdges"/><rect fill="#003054" x="561.2" y="172.3" width="12.2" height="24.65" shape-rendering="crispEdges"/><rect fill="#003054" x="573.4" y="172.3" width="12.2" height="24.65" shape-rendering="crispEdges"/><rect fill="#003054" x="585.6" y="172.3" width="12.2" height="24.65" shape-rendering="crispEdges"/><rect fill="#003054" x="597.8" y="172.3" width="12.2" height="24.65" shape-rendering="crispEdges"/><rect fill="#003054" x="610" y="172.3" width="12.2" height="24.65" shape-rendering="crispEdges"/><rect fill="#003054" x="622.2" y="172.3" width="12.2" height="24.65" shape-rendering="crispEdges"/><rect fill="#003054" x="634.4" y="172.3" width="12.2" height="24.65" shape-rendering="crispEdges"/><rect fill="#003054" x="646.6" y="172.3" width="12.2" height="24.65" shape-rendering="crispEdges"/><rect fill="#003054" x="658.8" y="172.3" width="12.2" height="24.65" shape-rendering="crispEdges"/><rect fill="#003054" x="671" y="172.3" width="12.2" height="24.65" shape-rendering="crispEdges"/><rect fill="#003054" x="683.2" y="172.3" width="12.2" height="24.65" shape-rendering="crispEdges"/><rect fill="#003054" x="695.4" y="172.3" width="12.2" height="24.65" shape-rendering="crispEdges"/><rect fill="#003054" x="707.6" y="172.3" width="12.2" height="24.65" shape-rendering="crispEdges"/><rect fill="#003054" x="719.8" y="172.3" width="12.2" height="24.65" shape-rendering="crispEdges"/><rect fill="#003054" x="732" y="172.3" width="12.2" height="24.65" shape-rendering="crispEdges"/><rect fill="#003054" x="744.2" y="172.3" width="12.2" height="24.65" shape-rendering="crispEdges"/><rect fill="#003054" x="756.4" y="172.3" width="12.2" height="24.65" shape-rendering="crispEdges"/><rect fill="#003054" x="768.6" y="172.3" width="12.2" height="24.65" shape-rendering="crispEdges"/><rect fill="#003054" x="780.8" y="172.3" width="12.2" height="24.65" shape-rendering="crispEdges"/><rect fill="#003054" x="793" y="172.3" width="12.2" height="24.65" shape-rendering="crispEdges"/><rect fill="#003054" x="805.2" y="172.3" width="12.2" height="24.65" shape-rendering="crispEdges"/><rect fill="#003054" x="817.4" y="172.3" width="12.2" height="24.65" shape-rendering="crispEdges"/><rect fill="#003054" x="829.6" y="172.3" width="12.2" height="24.65" shape-rendering="crispEdges"/><rect fill="#003054" x="841.8" y="172.3" width="12.2" height="24.65" shape-rendering="crispEdges"/><rect fill="#000000" x="854" y="172.3" width="12.2" height="24.65" shape-rendering="crispEdges"/><rect fill="#000000" x="866.2" y="172.3" width="12.2" height="24.65" shape-rendering="crispEdges"/><rect fill="#000000" x="878.4" y="172.3" width="12.2" height="24.65" shape-rendering="crispEdges"/><rect fill="#000000" x="890.6" y="172.3" width="12.2" height="24.65" shape-rendering="crispEdges"/><rect fill="#000000" x="902.8" y="172.3" width="12.2" height="24.65" shape-rendering="crispEdges"/><rect fill="#000000" x="915" y="172.3" width="12.2" height="24.65" shape-rendering="crispEdges"/><rect fill="#000000" x="927.2" y="172.3" width="12.2" height="24.65" shape-rendering="crispEdges"/><rect fill="#000000" x="939.4" y="172.3" width="12.2" height="24.65" shape-rendering="crispEdges"/><rect fill="#000000" x="951.6" y="172.3" width="24.4" height="24.65" shape-rendering="crispEdges"/><rect fill="#272727" x="0" y="196.7" width="48.8" height="24.65" shape-rendering="crispEdges"/><rect fill="#272727" x="48.8" y="196.7" width="48.8" height="24.65" shape-rendering="crispEdges"/><rect fill="#272727" x="97.6" y="196.7" width="122" height="24.65" shape-rendering="crispEdges"/><rect fill="#272727" x="219.6" y="196.7" width="12.2" height="24.65" shape-rendering="crispEdges"/><rect fill="#1e1e1e" x="231.8" y="196.7" width="12.2" height="24.65" shape-rendering="crispEdges"/><rect fill="#1e1e1e" x="244" y="196.7" width="732" height="24.65" shape-rendering="crispEdges"/><rect fill="#272727" x="0" y="221.1" width="48.8" height="24.65" shape-rendering="crispEdges"/><rect fill="#272727" x="48.8" y="221.1" width="24.4" height="24.65" shape-rendering="crispEdges"/><rect fill="#272727" x="73.2" y="221.1" width="146.4" height="24.65" shape-rendering="crispEdges"/><rect fill="#272727" x="219.6" y="221.1" width="12.2" height="24.65" shape-rendering="crispEdges"/><rect fill="#1e1e1e" x="231.8" y="221.1" width="12.2" height="24.65" shape-rendering="crispEdges"/><rect fill="#1e1e1e" x="244" y="221.1" width="12.2" height="24.65" shape-rendering="crispEdges"/><rect fill="#1e1e1e" x="256.2" y="221.1" width="85.4" height="24.65" shape-rendering="crispEdges"/><rect fill="#1e1e1e" x="341.6" y="221.1" width="12.2" height="24.65" shape-rendering="crispEdges"/><rect fill="#1e1e1e" x="353.8" y="221.1" width="12.2" height="24.65" shape-rendering="crispEdges"/><rect fill="#1e1e1e" x="366" y="221.1" width="36.6" height="24.65" shape-rendering="crispEdges"/><rect fill="#1e1e1e" x="402.6" y="221.1" width="12.2" height="24.65" shape-rendering="crispEdges"/><rect fill="#1e1e1e" x="414.8" y="221.1" width="561.2" height="24.65" shape-rendering="crispEdges"/><rect fill="#272727" x="0" y="245.5" width="48.8" height="24.65" shape-rendering="crispEdges"/><rect fill="#272727" x="48.8" y="245.5" width="48.8" height="24.65" shape-rendering="crispEdges"/><rect fill="#272727" x="97.6" y="245.5" width="122" height="24.65" shape-rendering="crispEdges"/><rect fill="#272727" x="219.6" y="245.5" width="12.2" height="24.65" shape-rendering="crispEdges"/><rect fill="#1e1e1e" x="231.8" y="245.5" width="12.2" height="24.65" shape-rendering="crispEdges"/><rect fill="#1e1e1e" x="244" y="245.5" width="109.8" height="24.65" shape-rendering="crispEdges"/><rect fill="#1e1e1e" x="353.8" y="245.5" width="12.2" height="24.65" shape-rendering="crispEdges"/><rect fill="#1e1e1e" x="366" y="245.5" width="36.6" height="24.65" shape-rendering="crispEdges"/><rect fill="#1e1e1e" x="402.6" y="245.5" width="12.2" height="24.65" shape-rendering="crispEdges"/><rect fill="#1e1e1e" x="414.8" y="245.5" width="561.2" height="24.65" shape-rendering="crispEdges"/><rect fill="#272727" x="0" y="269.9" width="48.8" height="24.65" shape-rendering="crispEdges"/><rect fill="#272727" x="48.8" y="269.9" width="48.8" height="24.65" shape-rendering="crispEdges"/><rect fill="#272727" x="97.6" y="269.9" width="134.2" height="24.65" shape-rendering="crispEdges"/><rect fill="#1e1e1e" x="231.8" y="269.9" width="12.2" height="24.65" shape-rendering="crispEdges"/><rect fill="#1e1e1e" x="244" y="269.9" width="256.2" height="24.65" shape-rendering="crispEdges"/><rect fill="#1e1e1e" x="500.2" y="269.9" width="73.2" height="24.65" shape-rendering="crispEdges"/><rect fill="#1e1e1e" x="573.4" y="269.9" width="256.2" height="24.65" shape-rendering="crispEdges"/><rect fill="#1e1e1e" x="829.6" y="269.9" width="122" height="24.65" shape-rendering="crispEdges"/><rect fill="#000000" x="951.6" y="269.9" width="24.4" height="24.65" shape-rendering="crispEdges"/><rect fill="#272727" x="0" y="294.3" width="48.8" height="24.65" shape-rendering="crispEdges"/><rect fill="#272727" x="48.8" y="294.3" width="48.8" height="24.65" shape-rendering="crispEdges"/><rect fill="#272727" x="97.6" y="294.3" width="134.2" height="24.65" shape-rendering="crispEdges"/><rect fill="#1e1e1e" x="231.8" y="294.3" width="12.2" height="24.65" shape-rendering="crispEdges"/><rect fill="#1e1e1e" x="244" y="294.3" width="707.6" height="24.65" shape-rendering="crispEdges"/><rect fill="#000000" x="951.6" y="294.3" width="24.4" height="24.65" shape-rendering="crispEdges"/><rect fill="#272727" x="0" y="318.7" width="48.8" height="24.65" shape-rendering="crispEdges"/><rect fill="#272727" x="48.8" y="318.7" width="48.8" height="24.65" shape-rendering="crispEdges"/><rect fill="#272727" x="97.6" y="318.7" width="134.2" height="24.65" shape-rendering="crispEdges"/><rect fill="#1e1e1e" x="231.8" y="318.7" width="12.2" height="24.65" shape-rendering="crispEdges"/><rect fill="#1e1e1e" x="244" y="318.7" width="707.6" height="24.65" shape-rendering="crispEdges"/><rect fill="#000000" x="951.6" y="318.7" width="24.4" height="24.65" shape-rendering="crispEdges"/><rect fill="#272727" x="0" y="343.1" width="48.8" height="24.65" shape-rendering="crispEdges"/><rect fill="#272727" x="48.8" y="343.1" width="48.8" height="24.65" shape-rendering="crispEdges"/><rect fill="#272727" x="97.6" y="343.1" width="134.2" height="24.65" shape-rendering="crispEdges"/><rect fill="#1e1e1e" x="231.8" y="343.1" width="12.2" height="24.65" shape-rendering="crispEdges"/><rect fill="#1e1e1e" x="244" y="343.1" width="707.6" height="24.65" shape-rendering="crispEdges"/><rect fill="#000000" x="951.6" y="343.1" width="24.4" height="24.65" shape-rendering="crispEdges"/><rect fill="#272727" x="0" y="367.5" width="48.8" height="24.65" shape-rendering="crispEdges"/><rect fill="#272727" x="48.8" y="367.5" width="48.8" height="24.65" shape-rendering="crispEdges"/><rect fill="#272727" x="97.6" y="367.5" width="122" height="24.65" shape-rendering="crispEdges"/><rect fill="#272727" x="219.6" y="367.5" width="12.2" height="24.65" shape-rendering="crispEdges"/><rect fill="#1e1e1e" x="231.8" y="367.5" width="12.2" height="24.65" shape-rendering="crispEdges"/><rect fill="#1e1e1e" x="244" y="367.5" width="707.6" height="24.65" shape-rendering="crispEdges"/><rect fill="#000000" x="951.6" y="367.5" width="24.4" height="24.65" shape-rendering="crispEdges"/><rect fill="#272727" x="0" y="391.9" width="231.8" height="24.65" shape-rendering="crispEdges"/><rect fill="#1e1e1e" x="231.8" y="391.9" width="12.2" height="24.65" shape-rendering="crispEdges"/><rect fill="#1e1e1e" x="244" y="391.9" width="707.6" height="24.65" shape-rendering="crispEdges"/><rect fill="#000000" x="951.6" y="391.9" width="24.4" height="24.65" shape-rendering="crispEdges"/><rect fill="#272727" x="0" y="416.3" width="231.8" height="24.65" shape-rendering="crispEdges"/><rect fill="#1e1e1e" x="231.8" y="416.3" width="12.2" height="24.65" shape-rendering="crispEdges"/><rect fill="#1e1e1e" x="244" y="416.3" width="707.6" height="24.65" shape-rendering="crispEdges"/><rect fill="#000000" x="951.6" y="416.3" width="24.4" height="24.65" shape-rendering="crispEdges"/><rect fill="#272727" x="0" y="440.7" width="231.8" height="24.65" shape-rendering="crispEdges"/><rect fill="#1e1e1e" x="231.8" y="440.7" width="12.2" height="24.65" shape-rendering="crispEdges"/><rect fill="#1e1e1e" x="244" y="440.7" width="707.6" height="24.65" shape-rendering="crispEdges"/><rect fill="#000000" x="951.6" y="440.7" width="24.4" height="24.65" shape-rendering="crispEdges"/><rect fill="#272727" x="0" y="465.1" width="231.8" height="24.65" shape-rendering="crispEdges"/><rect fill="#1e1e1e" x="231.8" y="465.1" width="12.2" height="24.65" shape-rendering="crispEdges"/><rect fill="#1e1e1e" x="244" y="465.1" width="707.6" height="24.65" shape-rendering="crispEdges"/><rect fill="#000000" x="951.6" y="465.1" width="24.4" height="24.65" shape-rendering="crispEdges"/><rect fill="#272727" x="0" y="489.5" width="231.8" height="24.65" shape-rendering="crispEdges"/><rect fill="#1e1e1e" x="231.8" y="489.5" width="12.2" height="24.65" shape-rendering="crispEdges"/><rect fill="#1e1e1e" x="244" y="489.5" width="707.6" height="24.65" shape-rendering="crispEdges"/><rect fill="#000000" x="951.6" y="489.5" width="24.4" height="24.65" shape-rendering="crispEdges"/><rect fill="#003054" x="0" y="513.9" width="12.2" height="24.65" shape-rendering="crispEdges"/><rect fill="#003054" x="12.2" y="513.9" width="12.2" height="24.65" shape-rendering="crispEdges"/><rect fill="#003054" x="24.4" y="513.9" width="12.2" height="24.65" shape-rendering="crispEdges"/><rect fill="#003054" x="36.6" y="513.9" width="12.2" height="24.65" shape-rendering="crispEdges"/><rect fill="#003054" x="48.8" y="513.9" width="12.2" height="24.65" shape-rendering="crispEdges"/><rect fill="#003054" x="61" y="513.9" width="12.2" height="24.65" shape-rendering="crispEdges"/><rect fill="#003054" x="73.2" y="513.9" width="12.2" height="24.65" shape-rendering="crispEdges"/><rect fill="#003054" x="85.4" y="513.9" width="12.2" height="24.65" shape-rendering="crispEdges"/><rect fill="#003054" x="97.6" y="513.9" width="12.2" height="24.65" shape-rendering="crispEdges"/><rect fill="#003054" x="109.8" y="513.9" width="12.2" height="24.65" shape-rendering="crispEdges"/><rect fill="#003054" x="122" y="513.9" width="12.2" height="24.65" shape-rendering="crispEdges"/><rect fill="#000000" x="134.2" y="513.9" width="12.2" height="24.65" shape-rendering="crispEdges"/><rect fill="#000000" x="146.4" y="513.9" width="12.2" height="24.65" shape-rendering="crispEdges"/><rect fill="#000000" x="158.6" y="513.9" width="12.2" height="24.65" shape-rendering="crispEdges"/><rect fill="#000000" x="170.8" y="513.9" width="12.2" height="24.65" shape-rendering="crispEdges"/><rect fill="#000000" x="183" y="513.9" width="12.2" height="24.65" shape-rendering="crispEdges"/><rect fill="#000000" x="195.2" y="513.9" width="12.2" height="24.65" shape-rendering="crispEdges"/><rect fill="#000000" x="207.4" y="513.9" width="12.2" height="24.65" shape-rendering="crispEdges"/><rect fill="#000000" x="219.6" y="513.9" width="12.2" height="24.65" shape-rendering="crispEdges"/><rect fill="#1e1e1e" x="231.8" y="513.9" width="12.2" height="24.65" shape-rendering="crispEdges"/><rect fill="#1e1e1e" x="244" y="513.9" width="707.6" height="24.65" shape-rendering="crispEdges"/><rect fill="#000000" x="951.6" y="513.9" width="24.4" height="24.65" shape-rendering="crispEdges"/><rect fill="#0178d4" x="0" y="538.3" width="12.2" height="24.65" shape-rendering="crispEdges"/><rect fill="#0178d4" x="12.2" y="538.3" width="463.6" height="24.65" shape-rendering="crispEdges"/><rect fill="#0178d4" x="475.8" y="538.3" width="500.2" height="24.65" shape-rendering="crispEdges"/><rect fill="#242f38" x="0" y="562.7" width="36.6" height="24.65" shape-rendering="crispEdges"/><rect fill="#242f38" x="36.6" y="562.7" width="61" height="24.65" shape-rendering="crispEdges"/><rect fill="#242f38" x="97.6" y="562.7" width="36.6" height="24.65" shape-rendering="crispEdges"/><rect fill="#242f38" x="134.2" y="562.7" width="97.6" height="24.65" shape-rendering="crispEdges"/><rect fill="#242f38" x="231.8" y="562.7" width="36.6" height="24.65" shape-rendering="crispEdges"/><rect fill="#242f38" x="268.4" y="562.7" width="122" height="24.65" shape-rendering="crispEdges"/><rect fill="#242f38" x="390.4" y="562.7" width="36.6" height="24.65" shape-rendering="crispEdges"/><rect fill="#242f38" x="427" y="562.7" width="146.4" height="24.65" shape-rendering="crispEdges"/><rect fill="#242f38" x="573.4" y="562.7" width="36.6" height="24.65" shape-rendering="crispEdges"/><rect fill="#242f38" x="610" y="562.7" width="170.8" height="24.65" shape-rendering="crispEdges"/><rect fill="#242f38" x="780.8" y="562.7" width="36.6" height="24.65" shape-rendering="crispEdges"/><rect fill="#242f38" x="817.4" y="562.7" width="12.2" height="24.65" shape-rendering="crispEdges"/><rect fill="#242f38" x="829.6" y="562.7" width="12.2" height="24.65" shape-rendering="crispEdges"/><rect fill="#242f38" x="841.8" y="562.7" width="24.4" height="24.65" shape-rendering="crispEdges"/><rect fill="#242f38" x="866.2" y="562.7" width="85.4" height="24.65" shape-rendering="crispEdges"/><rect fill="#242f38" x="951.6" y="562.7" width="12.2" height="24.65" shape-rendering="crispEdges"/><rect fill="#242f38" x="963.8" y="562.7" width="12.2" height="24.65" shape-rendering="crispEdges"/>
    <g class="terminal-3223252755-matrix">
    <text class="terminal-3223252755-r2" x="12.2" y="20" textLength="12.2" clip-path="url(#terminal-3223252755-line-0)">⭘</text><text class="terminal-3223252755-r2" x="414.8" y="20" textLength="109.8" clip-path="url(#terminal-3223252755-line-0)">RocotoApp</text><text class="terminal-3223252755-r3" x="866.2" y="20" textLength="97.6" clip-path="url(#terminal-3223252755-line-0)">02:38:01</text><text class="terminal-3223252755-r1" x="976" y="20" textLength="12.2" clip-path="url(#terminal-3223252755-line-0)">
</text><text class="terminal-3223252755-r2" x="0" y="44.4" textLength="24.4" clip-path="url(#terminal-3223252755-line-1)">▼&#160;</text><text class="terminal-3223252755-r2" x="24.4" y="44.4" textLength="73.2" clip-path="url(#terminal-3223252755-line-1)">Cycles</text><text class="terminal-3223252755-r4" x="231.8" y="44.4" textLength="12.2" clip-path="url(#terminal-3223252755-line-1)">│</text><text class="terminal-3223252755-r1" x="976" y="44.4" textLength="12.2" clip-path="url(#terminal-3223252755-line-1)">
</text><text class="terminal-3223252755-r5" x="0" y="68.8" textLength="48.8" clip-path="url(#terminal-3223252755-line-2)">├──&#160;</text><text class="terminal-3223252755-r2" x="48.8" y="68.8" textLength="24.4" clip-path="url(#terminal-3223252755-line-2)">▼&#160;</text><text class="terminal-3223252755-r2" x="73.2" y="68.8" textLength="146.4" clip-path="url(#terminal-3223252755-line-2)">202310270000</text><text class="terminal-3223252755-r4" x="231.8" y="68.8" textLength="12.2" clip-path="url(#terminal-3223252755-line-2)">│</text><text class="terminal-3223252755-r6" x="256.2" y="68.8" textLength="12.2" clip-path="url(#terminal-3223252755-line-2)">▊</text><text class="terminal-3223252755-r7" x="268.4" y="68.8" textLength="683.2" clip-path="url(#terminal-3223252755-line-2)">▔▔▔▔▔▔▔▔▔▔▔▔▔▔▔▔▔▔▔▔▔▔▔▔▔▔▔▔▔▔▔▔▔▔▔▔▔▔▔▔▔▔▔▔▔▔▔▔▔▔▔▔▔▔▔▔</text><text class="terminal-3223252755-r7" x="951.6" y="68.8" textLength="12.2" clip-path="url(#terminal-3223252755-line-2)">▎</text><text class="terminal-3223252755-r1" x="976" y="68.8" textLength="12.2" clip-path="url(#terminal-3223252755-line-2)">
</text><text class="terminal-3223252755-r5" x="0" y="93.2" textLength="48.8" clip-path="url(#terminal-3223252755-line-3)">│&#160;&#160;&#160;</text><text class="terminal-3223252755-r5" x="48.8" y="93.2" textLength="48.8" clip-path="url(#terminal-3223252755-line-3)">├──&#160;</text><text class="terminal-3223252755-r8" x="97.6" y="93.2" textLength="109.8" clip-path="url(#terminal-3223252755-line-3)">✅&#160;ingest&#160;</text><text class="terminal-3223252755-r8" x="219.6" y="93.2" textLength="12.2" clip-path="url(#terminal-3223252755-line-3)">S</text><text class="terminal-3223252755-r4" x="231.8" y="93.2" textLength="12.2" clip-path="url(#terminal-3223252755-line-3)">│</text><text class="terminal-3223252755-r6" x="256.2" y="93.2" textLength="12.2" clip-path="url(#terminal-3223252755-line-3)">▊</text><text class="terminal-3223252755-r9" x="292.8" y="93.2" textLength="280.6" clip-path="url(#terminal-3223252755-line-3)">Filter&#160;tasks&#160;by&#160;name...</text><text class="terminal-3223252755-r7" x="951.6" y="93.2" textLength="12.2" clip-path="url(#terminal-3223252755-line-3)">▎</text><text class="terminal-3223252755-r1" x="976" y="93.2" textLength="12.2" clip-path="url(#terminal-3223252755-line-3)">
</text><text class="terminal-3223252755-r5" x="0" y="117.6" textLength="48.8" clip-path="url(#terminal-3223252755-line-4)">│&#160;&#160;&#160;</text><text class="terminal-3223252755-r5" x="48.8" y="117.6" textLength="48.8" clip-path="url(#terminal-3223252755-line-4)">├──&#160;</text><text class="terminal-3223252755-r2" x="97.6" y="117.6" textLength="122" clip-path="url(#terminal-3223252755-line-4)">✅&#160;run_mode</text><text class="terminal-3223252755-r4" x="231.8" y="117.6" textLength="12.2" clip-path="url(#terminal-3223252755-line-4)">│</text><text class="terminal-3223252755-r6" x="256.2" y="117.6" textLength="12.2" clip-path="url(#terminal-3223252755-line-4)">▊</text><text class="terminal-3223252755-r7" x="268.4" y="117.6" textLength="683.2" clip-path="url(#terminal-3223252755-line-4)">▁▁▁▁▁▁▁▁▁▁▁▁▁▁▁▁▁▁▁▁▁▁▁▁▁▁▁▁▁▁▁▁▁▁▁▁▁▁▁▁▁▁▁▁▁▁▁▁▁▁▁▁▁▁▁▁</text><text class="terminal-3223252755-r7" x="951.6" y="117.6" textLength="12.2" clip-path="url(#terminal-3223252755-line-4)">▎</text><text class="terminal-3223252755-r1" x="976" y="117.6" textLength="12.2" clip-path="url(#terminal-3223252755-line-4)">
</text><text class="terminal-3223252755-r5" x="0" y="142" textLength="48.8" clip-path="url(#terminal-3223252755-line-5)">│&#160;&#160;&#160;</text><text class="terminal-3223252755-r5" x="48.8" y="142" textLength="48.8" clip-path="url(#terminal-3223252755-line-5)">├──&#160;</text><text class="terminal-3223252755-r2" x="97.6" y="142" textLength="122" clip-path="url(#terminal-3223252755-line-5)">✅&#160;run_mode</text><text class="terminal-3223252755-r4" x="231.8" y="142" textLength="12.2" clip-path="url(#terminal-3223252755-line-5)">│</text><text class="terminal-3223252755-r1" x="976" y="142" textLength="12.2" clip-path="url(#terminal-3223252755-line-5)">
</text><text class="terminal-3223252755-r5" x="0" y="166.4" textLength="48.8" clip-path="url(#terminal-3223252755-line-6)">│&#160;&#160;&#160;</text><text class="terminal-3223252755-r5" x="48.8" y="166.4" textLength="48.8" clip-path="url(#terminal-3223252755-line-6)">├──&#160;</text><text class="terminal-3223252755-r2" x="97.6" y="166.4" textLength="122" clip-path="url(#terminal-3223252755-line-6)">✅&#160;post_pro</text><text class="terminal-3223252755-r4" x="231.8" y="166.4" textLength="12.2" clip-path="url(#terminal-3223252755-line-6)">│</text><text class="terminal-3223252755-r10" x="244" y="166.4" textLength="170.8" clip-path="url(#terminal-3223252755-line-6)">&#160;Cycle&#160;&#160;&#160;&#160;&#160;&#160;&#160;&#160;</text><text class="terminal-3223252755-r10" x="414.8" y="166.4" textLength="134.2" clip-path="url(#terminal-3223252755-line-6)">&#160;Task&#160;&#160;&#160;&#160;&#160;&#160;</text><text class="terminal-3223252755-r10" x="549" y="166.4" textLength="97.6" clip-path="url(#terminal-3223252755-line-6)">&#160;Job&#160;ID&#160;</text><text class="terminal-3223252755-r10" x="646.6" y="166.4" textLength="134.2" clip-path="url(#terminal-3223252755-line-6)">&#160;State&#160;&#160;&#160;&#160;&#160;</text><text class="terminal-3223252755-r10" x="780.8" y="166.4" textLength="73.2" clip-path="url(#terminal-3223252755-line-6)">&#160;Exit&#160;</text><text class="terminal-3223252755-r10" x="854" y="166.4" textLength="85.4" clip-path="url(#terminal-3223252755-line-6)">&#160;Tries&#160;</text><text class="terminal-3223252755-r1" x="976" y="166.4" textLength="12.2" clip-path="url(#terminal-3223252755-line-6)">
</text><text class="terminal-3223252755-r5" x="0" y="190.8" textLength="48.8" clip-path="url(#terminal-3223252755-line-7)">│&#160;&#160;&#160;</text><text class="terminal-3223252755-r5" x="48.8" y="190.8" textLength="48.8" clip-path="url(#terminal-3223252755-line-7)">├──&#160;</text><text class="terminal-3223252755-r2" x="97.6" y="190.8" textLength="122" clip-path="url(#terminal-3223252755-line-7)">✅&#160;archive&#160;</text><text class="terminal-3223252755-r4" x="231.8" y="190.8" textLength="12.2" clip-path="url(#terminal-3223252755-line-7)">│</text><text class="terminal-3223252755-r11" x="854" y="190.8" textLength="12.2" clip-path="url(#terminal-3223252755-line-7)">▎</text><text class="terminal-3223252755-r1" x="976" y="190.8" textLength="12.2" clip-path="url(#terminal-3223252755-line-7)">
</text><text class="terminal-3223252755-r5" x="0" y="215.2" textLength="48.8" clip-path="url(#terminal-3223252755-line-8)">│&#160;&#160;&#160;</text><text class="terminal-3223252755-r5" x="48.8" y="215.2" textLength="48.8" clip-path="url(#terminal-3223252755-line-8)">└──&#160;</text><text class="terminal-3223252755-r2" x="97.6" y="215.2" textLength="109.8" clip-path="url(#terminal-3223252755-line-8)">✅&#160;verify&#160;</text><text class="terminal-3223252755-r12" x="219.6" y="215.2" textLength="12.2" clip-path="url(#terminal-3223252755-line-8)">S</text><text class="terminal-3223252755-r4" x="231.8" y="215.2" textLength="12.2" clip-path="url(#terminal-3223252755-line-8)">│</text><text class="terminal-3223252755-r4" x="244" y="215.2" textLength="732" clip-path="url(#terminal-3223252755-line-8)">────────────────────────────────────────────────────────────</text><text class="terminal-3223252755-r1" x="976" y="215.2" textLength="12.2" clip-path="url(#terminal-3223252755-line-8)">
</text><text class="terminal-3223252755-r5" x="0" y="239.6" textLength="48.8" clip-path="url(#terminal-3223252755-line-9)">└──&#160;</text><text class="terminal-3223252755-r2" x="48.8" y="239.6" textLength="24.4" clip-path="url(#terminal-3223252755-line-9)">▼&#160;</text><text class="terminal-3223252755-r2" x="73.2" y="239.6" textLength="146.4" clip-path="url(#terminal-3223252755-line-9)">202310271200</text><text class="terminal-3223252755-r4" x="231.8" y="239.6" textLength="12.2" clip-path="url(#terminal-3223252755-line-9)">│</text><text class="terminal-3223252755-r13" x="256.2" y="239.6" textLength="85.4" clip-path="url(#terminal-3223252755-line-9)">Details</text><text class="terminal-3223252755-r2" x="366" y="239.6" textLength="36.6" clip-path="url(#terminal-3223252755-line-9)">Log</text><text class="terminal-3223252755-r1" x="976" y="239.6" textLength="12.2" clip-path="url(#terminal-3223252755-line-9)">
</text><text class="terminal-3223252755-r5" x="48.8" y="264" textLength="48.8" clip-path="url(#terminal-3223252755-line-10)">├──&#160;</text><text class="terminal-3223252755-r2" x="97.6" y="264" textLength="109.8" clip-path="url(#terminal-3223252755-line-10)">✅&#160;ingest&#160;</text><text class="terminal-3223252755-r12" x="219.6" y="264" textLength="12.2" clip-path="url(#terminal-3223252755-line-10)">S</text><text class="terminal-3223252755-r4" x="231.8" y="264" textLength="12.2" clip-path="url(#terminal-3223252755-line-10)">│</text><text class="terminal-3223252755-r14" x="244" y="264" textLength="109.8" clip-path="url(#terminal-3223252755-line-10)">━━━━━━━━━</text><text class="terminal-3223252755-r14" x="353.8" y="264" textLength="12.2" clip-path="url(#terminal-3223252755-line-10)">╸</text><text class="terminal-3223252755-r4" x="366" y="264" textLength="36.6" clip-path="url(#terminal-3223252755-line-10)">━━━</text><text class="terminal-3223252755-r14" x="402.6" y="264" textLength="12.2" clip-path="url(#terminal-3223252755-line-10)">╺</text><text class="terminal-3223252755-r14" x="414.8" y="264" textLength="561.2" clip-path="url(#terminal-3223252755-line-10)">━━━━━━━━━━━━━━━━━━━━━━━━━━━━━━━━━━━━━━━━━━━━━━</text><text class="terminal-3223252755-r1" x="976" y="264" textLength="12.2" clip-path="url(#terminal-3223252755-line-10)">
</text><text class="terminal-3223252755-r5" x="48.8" y="288.4" textLength="48.8" clip-path="url(#terminal-3223252755-line-11)">├──&#160;</text><text class="terminal-3223252755-r2" x="97.6" y="288.4" textLength="122" clip-path="url(#terminal-3223252755-line-11)">💀&#160;run_mode</text><text class="terminal-3223252755-r4" x="231.8" y="288.4" textLength="12.2" clip-path="url(#terminal-3223252755-line-11)">│</text><text class="terminal-3223252755-r2" x="244" y="288.4" textLength="256.2" clip-path="url(#terminal-3223252755-line-11)">Log&#160;file&#160;not&#160;found:&#160;.</text><text class="terminal-3223252755-r15" x="500.2" y="288.4" textLength="73.2" clip-path="url(#terminal-3223252755-line-11)">/logs/</text><text class="terminal-3223252755-r15" x="573.4" y="288.4" textLength="256.2" clip-path="url(#terminal-3223252755-line-11)">ingest_2023102700.log</text><text class="terminal-3223252755-r1" x="976" y="288.4" textLength="12.2" clip-path="url(#terminal-3223252755-line-11)">
</text><text class="terminal-3223252755-r5" x="48.8" y="312.8" textLength="48.8" clip-path="url(#terminal-3223252755-line-12)">├──&#160;</text><text class="terminal-3223252755-r2" x="97.6" y="312.8" textLength="122" clip-path="url(#terminal-3223252755-line-12)">🏃&#160;run_mode</text><text class="terminal-3223252755-r4" x="231.8" y="312.8" textLength="12.2" clip-path="url(#terminal-3223252755-line-12)">│</text><text class="terminal-3223252755-r1" x="976" y="312.8" textLength="12.2" clip-path="url(#terminal-3223252755-line-12)">
</text><text class="terminal-3223252755-r5" x="48.8" y="337.2" textLength="48.8" clip-path="url(#terminal-3223252755-line-13)">├──&#160;</text><text class="terminal-3223252755-r2" x="97.6" y="337.2" textLength="122" clip-path="url(#terminal-3223252755-line-13)">🕒&#160;post_pro</text><text class="terminal-3223252755-r4" x="231.8" y="337.2" textLength="12.2" clip-path="url(#terminal-3223252755-line-13)">│</text><text class="terminal-3223252755-r1" x="976" y="337.2" textLength="12.2" clip-path="url(#terminal-3223252755-line-13)">
</text><text class="terminal-3223252755-r5" x="48.8" y="361.6" textLength="48.8" clip-path="url(#terminal-3223252755-line-14)">├──&#160;</text><text class="terminal-3223252755-r2" x="97.6" y="361.6" textLength="122" clip-path="url(#terminal-3223252755-line-14)">⌛&#160;archive&#160;</text><text class="terminal-3223252755-r4" x="231.8" y="361.6" textLength="12.2" clip-path="url(#terminal-3223252755-line-14)">│</text><text class="terminal-3223252755-r1" x="976" y="361.6" textLength="12.2" clip-path="url(#terminal-3223252755-line-14)">
</text><text class="terminal-3223252755-r5" x="48.8" y="386" textLength="48.8" clip-path="url(#terminal-3223252755-line-15)">└──&#160;</text><text class="terminal-3223252755-r2" x="97.6" y="386" textLength="109.8" clip-path="url(#terminal-3223252755-line-15)">⌛&#160;verify&#160;</text><text class="terminal-3223252755-r16" x="219.6" y="386" textLength="12.2" clip-path="url(#terminal-3223252755-line-15)">P</text><text class="terminal-3223252755-r4" x="231.8" y="386" textLength="12.2" clip-path="url(#terminal-3223252755-line-15)">│</text><text class="terminal-3223252755-r1" x="976" y="386" textLength="12.2" clip-path="url(#terminal-3223252755-line-15)">
</text><text class="terminal-3223252755-r4" x="231.8" y="410.4" textLength="12.2" clip-path="url(#terminal-3223252755-line-16)">│</text><text class="terminal-3223252755-r1" x="976" y="410.4" textLength="12.2" clip-path="url(#terminal-3223252755-line-16)">
</text><text class="terminal-3223252755-r4" x="231.8" y="434.8" textLength="12.2" clip-path="url(#terminal-3223252755-line-17)">│</text><text class="terminal-3223252755-r1" x="976" y="434.8" textLength="12.2" clip-path="url(#terminal-3223252755-line-17)">
</text><text class="terminal-3223252755-r4" x="231.8" y="459.2" textLength="12.2" clip-path="url(#terminal-3223252755-line-18)">│</text><text class="terminal-3223252755-r1" x="976" y="459.2" textLength="12.2" clip-path="url(#terminal-3223252755-line-18)">
</text><text class="terminal-3223252755-r4" x="231.8" y="483.6" textLength="12.2" clip-path="url(#terminal-3223252755-line-19)">│</text><text class="terminal-3223252755-r1" x="976" y="483.6" textLength="12.2" clip-path="url(#terminal-3223252755-line-19)">
</text><text class="terminal-3223252755-r4" x="231.8" y="508" textLength="12.2" clip-path="url(#terminal-3223252755-line-20)">│</text><text class="terminal-3223252755-r1" x="976" y="508" textLength="12.2" clip-path="url(#terminal-3223252755-line-20)">
</text><text class="terminal-3223252755-r4" x="231.8" y="532.4" textLength="12.2" clip-path="url(#terminal-3223252755-line-21)">│</text><text class="terminal-3223252755-r1" x="976" y="532.4" textLength="12.2" clip-path="url(#terminal-3223252755-line-21)">
</text><text class="terminal-3223252755-r18" x="12.2" y="556.8" textLength="463.6" clip-path="url(#terminal-3223252755-line-22)">Path:&#160;Workflow&#160;&gt;&#160;202310270000&#160;&gt;&#160;ingest</text><text class="terminal-3223252755-r1" x="976" y="556.8" textLength="12.2" clip-path="url(#terminal-3223252755-line-22)">
</text><text class="terminal-3223252755-r19" x="0" y="581.2" textLength="36.6" clip-path="url(#terminal-3223252755-line-23)">&#160;q&#160;</text><text class="terminal-3223252755-r2" x="36.6" y="581.2" textLength="61" clip-path="url(#terminal-3223252755-line-23)">Quit&#160;</text><text class="terminal-3223252755-r19" x="97.6" y="581.2" textLength="36.6" clip-path="url(#terminal-3223252755-line-23)">&#160;r&#160;</text><text class="terminal-3223252755-r2" x="134.2" y="581.2" textLength="97.6" clip-path="url(#terminal-3223252755-line-23)">Refresh&#160;</text><text class="terminal-3223252755-r19" x="231.8" y="581.2" textLength="36.6" clip-path="url(#terminal-3223252755-line-23)">&#160;b&#160;</text><text class="terminal-3223252755-r2" x="268.4" y="581.2" textLength="122" clip-path="url(#terminal-3223252755-line-23)">Boot&#160;Task&#160;</text><text class="terminal-3223252755-r19" x="390.4" y="581.2" textLength="36.6" clip-path="url(#terminal-3223252755-line-23)">&#160;w&#160;</text><text class="terminal-3223252755-r2" x="427" y="581.2" textLength="146.4" clip-path="url(#terminal-3223252755-line-23)">Rewind&#160;Task&#160;</text><text class="terminal-3223252755-r19" x="573.4" y="581.2" textLength="36.6" clip-path="url(#terminal-3223252755-line-23)">&#160;c&#160;</text><text class="terminal-3223252755-r2" x="610" y="581.2" textLength="170.8" clip-path="url(#terminal-3223252755-line-23)">Mark&#160;Complete&#160;</text><text class="terminal-3223252755-r19" x="780.8" y="581.2" textLength="36.6" clip-path="url(#terminal-3223252755-line-23)">&#160;l&#160;</text><text class="terminal-3223252755-r2" x="817.4" y="581.2" textLength="12.2" clip-path="url(#terminal-3223252755-line-23)">T</text><text class="terminal-3223252755-r20" x="829.6" y="581.2" textLength="12.2" clip-path="url(#terminal-3223252755-line-23)">▏</text><text class="terminal-3223252755-r19" x="841.8" y="581.2" textLength="24.4" clip-path="url(#terminal-3223252755-line-23)">^p</text><text class="terminal-3223252755-r2" x="866.2" y="581.2" textLength="85.4" clip-path="url(#terminal-3223252755-line-23)">&#160;palett</text><text class="terminal-3223252755-r2" x="951.6" y="581.2" textLength="12.2" clip-path="url(#terminal-3223252755-line-23)">e</text>
    </g>
    </g>
</svg>
