<svg class="rich-terminal" viewBox="0 0 994 635.5999999999999" xmlns="http://www.w3.org/2000/svg">
    <!-- Generated with Rich https://www.textualize.io -->
    <style>

    @font-face {
        font-family: "Fira Code";
        src: local("FiraCode-Regular"),
                url("https://cdnjs.cloudflare.com/ajax/libs/firacode/6.2.0/woff2/FiraCode-Regular.woff2") format("woff2"),
                url("https://cdnjs.cloudflare.com/ajax/libs/firacode/6.2.0/woff/FiraCode-Regular.woff") format("woff");
        font-style: normal;
        font-weight: 400;
    }
    @font-face {
        font-family: "Fira Code";
        src: local("FiraCode-Bold"),
                url("https://cdnjs.cloudflare.com/ajax/libs/firacode/6.2.0/woff2/FiraCode-Bold.woff2") format("woff2"),
                url("https://cdnjs.cloudflare.com/ajax/libs/firacode/6.2.0/woff/FiraCode-Bold.woff") format("woff");
        font-style: bold;
        font-weight: 700;
    }

    .terminal-2797978833-matrix {
        font-family: Fira Code, monospace;
        font-size: 20px;
        line-height: 24.4px;
        font-variant-east-asian: full-width;
    }

    .terminal-2797978833-title {
        font-size: 18px;
        font-weight: bold;
        font-family: arial;
    }

    .terminal-2797978833-r1 { fill: #c5c8c6 }
.terminal-2797978833-r2 { fill: #e0e0e0 }
.terminal-2797978833-r3 { fill: #c5c6c7 }
.terminal-2797978833-r4 { fill: #0178d4 }
.terminal-2797978833-r5 { fill: #3e3e3e }
.terminal-2797978833-r6 { fill: #1e1e1e }
.terminal-2797978833-r7 { fill: #121212 }
.terminal-2797978833-r8 { fill: #e0e0e0;font-weight: bold }
.terminal-2797978833-r9 { fill: #003054 }
.terminal-2797978833-r10 { fill: #ddedf9 }
.terminal-2797978833-r11 { fill: #495259 }
.terminal-2797978833-r12 { fill: #ffa62b;font-weight: bold }
    </style>

    <defs>
    <clipPath id="terminal-2797978833-clip-terminal">
      <rect x="0" y="0" width="975.0" height="584.5999999999999" />
    </clipPath>
    <clipPath id="terminal-2797978833-line-0">
    <rect x="0" y="1.5" width="976" height="24.65"/>
            </clipPath>
<clipPath id="terminal-2797978833-line-1">
    <rect x="0" y="25.9" width="976" height="24.65"/>
            </clipPath>
<clipPath id="terminal-2797978833-line-2">
    <rect x="0" y="50.3" width="976" height="24.65"/>
            </clipPath>
<clipPath id="terminal-2797978833-line-3">
    <rect x="0" y="74.7" width="976" height="24.65"/>
            </clipPath>
<clipPath id="terminal-2797978833-line-4">
    <rect x="0" y="99.1" width="976" height="24.65"/>
            </clipPath>
<clipPath id="terminal-2797978833-line-5">
    <rect x="0" y="123.5" width="976" height="24.65"/>
            </clipPath>
<clipPath id="terminal-2797978833-line-6">
    <rect x="0" y="147.9" width="976" height="24.65"/>
            </clipPath>
<clipPath id="terminal-2797978833-line-7">
    <rect x="0" y="172.3" width="976" height="24.65"/>
            </clipPath>
<clipPath id="terminal-2797978833-line-8">
    <rect x="0" y="196.7" width="976" height="24.65"/>
            </clipPath>
<clipPath id="terminal-2797978833-line-9">
    <rect x="0" y="221.1" width="976" height="24.65"/>
            </clipPath>
<clipPath id="terminal-2797978833-line-10">
    <rect x="0" y="245.5" width="976" height="24.65"/>
            </clipPath>
<clipPath id="terminal-2797978833-line-11">
    <rect x="0" y="269.9" width="976" height="24.65"/>
            </clipPath>
<clipPath id="terminal-2797978833-line-12">
    <rect x="0" y="294.3" width="976" height="24.65"/>
            </clipPath>
<clipPath id="terminal-2797978833-line-13">
    <rect x="0" y="318.7" width="976" height="24.65"/>
            </clipPath>
<clipPath id="terminal-2797978833-line-14">
    <rect x="0" y="343.1" width="976" height="24.65"/>
            </clipPath>
<clipPath id="terminal-2797978833-line-15">
    <rect x="0" y="367.5" width="976" height="24.65"/>
            </clipPath>
<clipPath id="terminal-2797978833-line-16">
    <rect x="0" y="391.9" width="976" height="24.65"/>
            </clipPath>
<clipPath id="terminal-2797978833-line-17">
    <rect x="0" y="416.3" width="976" height="24.65"/>
            </clipPath>
<clipPath id="terminal-2797978833-line-18">
    <rect x="0" y="440.7" width="976" height="24.65"/>
            </clipPath>
<clipPath id="terminal-2797978833-line-19">
    <rect x="0" y="465.1" width="976" height="24.65"/>
            </clipPath>
<clipPath id="terminal-2797978833-line-20">
    <rect x="0" y="489.5" width="976" height="24.65"/>
            </clipPath>
<clipPath id="terminal-2797978833-line-21">
    <rect x="0" y="513.9" width="976" height="24.65"/>
            </clipPath>
<clipPath id="terminal-2797978833-line-22">
    <rect x="0" y="538.3" width="976" height="24.65"/>
            </clipPath>
    </defs>

    <rect fill="#292929" stroke="rgba(255,255,255,0.35)" stroke-width="1" x="1" y="1" width="992" height="633.6" rx="8"/><text class="terminal-2797978833-title" fill="#c5c8c6" text-anchor="middle" x="496" y="27">RocotoApp</text>
            <g transform="translate(26,22)">
            <circle cx="0" cy="0" r="7" fill="#ff5f57"/>
            <circle cx="22" cy="0" r="7" fill="#febc2e"/>
            <circle cx="44" cy="0" r="7" fill="#28c840"/>
            </g>

    <g transform="translate(9, 41)" clip-path="url(#terminal-2797978833-clip-terminal)">
    <rect fill="#242f38" x="0" y="1.5" width="12.2" height="24.65" shape-rendering="crispEdges"/><rect fill="#242f38" x="12.2" y="1.5" width="12.2" height="24.65" shape-rendering="crispEdges"/><rect fill="#242f38" x="24.4" y="1.5" width="61" height="24.65" shape-rendering="crispEdges"/><rect fill="#242f38" x="85.4" y="1.5" width="12.2" height="24.65" shape-rendering="crispEdges"/><rect fill="#242f38" x="97.6" y="1.5" width="317.2" height="24.65" shape-rendering="crispEdges"/><rect fill="#242f38" x="414.8" y="1.5" width="109.8" height="24.65" shape-rendering="crispEdges"/><rect fill="#242f38" x="524.6" y="1.5" width="329.4" height="24.65" shape-rendering="crispEdges"/><rect fill="#2c363f" x="854" y="1.5" width="12.2" height="24.65" shape-rendering="crispEdges"/><rect fill="#2c363f" x="866.2" y="1.5" width="97.6" height="24.65" shape-rendering="crispEdges"/><rect fill="#2c363f" x="963.8" y="1.5" width="12.2" height="24.65" shape-rendering="crispEdges"/><rect fill="#1e1e1e" x="0" y="25.9" width="24.4" height="24.65" shape-rendering="crispEdges"/><rect fill="#153854" x="24.4" y="25.9" width="73.2" height="24.65" shape-rendering="crispEdges"/><rect fill="#1e1e1e" x="97.6" y="25.9" width="134.2" height="24.65" shape-rendering="crispEdges"/><rect fill="#1e1e1e" x="231.8" y="25.9" width="12.2" height="24.65" shape-rendering="crispEdges"/><rect fill="#1e1e1e" x="244" y="25.9" width="732" height="24.65" shape-rendering="crispEdges"/><rect fill="#1e1e1e" x="0" y="50.3" width="48.8" height="24.65" shape-rendering="crispEdges"/><rect fill="#1e1e1e" x="48.8" y="50.3" width="24.4" height="24.65" shape-rendering="crispEdges"/><rect fill="#1e1e1e" x="73.2" y="50.3" width="146.4" height="24.65" shape-rendering="crispEdges"/><rect fill="#1e1e1e" x="219.6" y="50.3" width="12.2" height="24.65" shape-rendering="crispEdges"/><rect fill="#1e1e1e" x="231.8" y="50.3" width="12.2" height="24.65" shape-rendering="crispEdges"/><rect fill="#1e1e1e" x="244" y="50.3" width="12.2" height="24.65" shape-rendering="crispEdges"/><rect fill="#0178d4" x="256.2" y="50.3" width="12.2" height="24.65" shape-rendering="crispEdges"/><rect fill="#272727" x="268.4" y="50.3" width="683.2" height="24.65" shape-rendering="crispEdges"/><rect fill="#1e1e1e" x="951.6" y="50.3" width="12.2" height="24.65" shape-rendering="crispEdges"/><rect fill="#1e1e1e" x="963.8" y="50.3" width="12.2" height="24.65" shape-rendering="crispEdges"/><rect fill="#1e1e1e" x="0" y="74.7" width="48.8" height="24.65" shape-rendering="crispEdges"/><rect fill="#1e1e1e" x="48.8" y="74.7" width="24.4" height="24.65" shape-rendering="crispEdges"/><rect fill="#1e1e1e" x="73.2" y="74.7" width="146.4" height="24.65" shape-rendering="crispEdges"/><rect fill="#1e1e1e" x="219.6" y="74.7" width="12.2" height="24.65" shape-rendering="crispEdges"/><rect fill="#1e1e1e" x="231.8" y="74.7" width="12.2" height="24.65" shape-rendering="crispEdges"/><rect fill="#1e1e1e" x="244" y="74.7" width="12.2" height="24.65" shape-rendering="crispEdges"/><rect fill="#0178d4" x="256.2" y="74.7" width="12.2" height="24.65" shape-rendering="crispEdges"/><rect fill="#272727" x="268.4" y="74.7" width="24.4" height="24.65" shape-rendering="crispEdges"/><rect fill="#272727" x="292.8" y="74.7" width="61" height="24.65" shape-rendering="crispEdges"/><rect fill="#e0e0e0" x="353.8" y="74.7" width="12.2" height="24.65" shape-rendering="crispEdges"/><rect fill="#272727" x="366" y="74.7" width="561.2" height="24.65" shape-rendering="crispEdges"/><rect fill="#272727" x="927.2" y="74.7" width="24.4" height="24.65" shape-rendering="crispEdges"/><rect fill="#1e1e1e" x="951.6" y="74.7" width="12.2" height="24.65" shape-rendering="crispEdges"/><rect fill="#1e1e1e" x="963.8" y="74.7" width="12.2" height="24.65" shape-rendering="crispEdges"/><rect fill="#1e1e1e" x="0" y="99.1" width="231.8" height="24.65" shape-rendering="crispEdges"/><rect fill="#1e1e1e" x="231.8" y="99.1" width="12.2" height="24.65" shape-rendering="crispEdges"/><rect fill="#1e1e1e" x="244" y="99.1" width="12.2" height="24.65" shape-rendering="crispEdges"/><rect fill="#0178d4" x="256.2" y="99.1" width="12.2" height="24.65" shape-rendering="crispEdges"/><rect fill="#272727" x="268.4" y="99.1" width="683.2" height="24.65" shape-rendering="crispEdges"/><rect fill="#1e1e1e" x="951.6" y="99.1" width="12.2" height="24.65" shape-rendering="crispEdges"/><rect fill="#1e1e1e" x="963.8" y="99.1" width="12.2" height="24.65" shape-rendering="crispEdges"/><rect fill="#1e1e1e" x="0" y="123.5" width="231.8" height="24.65" shape-rendering="crispEdges"/><rect fill="#1e1e1e" x="231.8" y="123.5" width="12.2" height="24.65" shape-rendering="crispEdges"/><rect fill="#1e1e1e" x="244" y="123.5" width="732" height="24.65" shape-rendering="crispEdges"/><rect fill="#1e1e1e" x="0" y="147.9" width="231.8" height="24.65" shape-rendering="crispEdges"/><rect fill="#1e1e1e" x="231.8" y="147.9" width="12.2" height="24.65" shape-rendering="crispEdges"/><rect fill="#242f38" x="244" y="147.9" width="170.8" height="24.65" shape-rendering="crispEdges"/><rect fill="#242f38" x="414.8" y="147.9" width="158.6" height="24.65" shape-rendering="crispEdges"/><rect fill="#242f38" x="573.4" y="147.9" width="97.6" height="24.65" shape-rendering="crispEdges"/><rect fill="#242f38" x="671" y="147.9" width="134.2" height="24.65" shape-rendering="crispEdges"/><rect fill="#242f38" x="805.2" y="147.9" width="73.2" height="24.65" shape-rendering="crispEdges"/><rect fill="#242f38" x="878.4" y="147.9" width="85.4" height="24.65" shape-rendering="crispEdges"/><rect fill="#242f38" x="963.8" y="147.9" width="12.2" height="24.65" shape-rendering="crispEdges"/><rect fill="#1e1e1e" x="0" y="172.3" width="231.8" height="24.65" shape-rendering="crispEdges"/><rect fill="#1e1e1e" x="231.8" y="172.3" width="12.2" height="24.65" shape-rendering="crispEdges"/><rect fill="#153854" x="244" y="172.3" width="170.8" height="24.65" shape-rendering="crispEdges"/><rect fill="#153854" x="414.8" y="172.3" width="158.6" height="24.65" shape-rendering="crispEdges"/><rect fill="#153854" x="573.4" y="172.3" width="97.6" height="24.65" shape-rendering="crispEdges"/><rect fill="#153854" x="671" y="172.3" width="134.2" height="24.65" shape-rendering="crispEdges"/><rect fill="#153854" x="805.2" y="172.3" width="73.2" height="24.65" shape-rendering="crispEdges"/><rect fill="#153854" x="878.4" y="172.3" width="85.4" height="24.65" shape-rendering="crispEdges"/><rect fill="#153854" x="963.8" y="172.3" width="12.2" height="24.65" shape-rendering="crispEdges"/><rect fill="#1e1e1e" x="0" y="196.7" width="231.8" height="24.65" shape-rendering="crispEdges"/><rect fill="#1e1e1e" x="231.8" y="196.7" width="12.2" height="24.65" shape-rendering="crispEdges"/><rect fill="#1e1e1e" x="244" y="196.7" width="170.8" height="24.65" shape-rendering="crispEdges"/><rect fill="#1e1e1e" x="414.8" y="196.7" width="158.6" height="24.65" shape-rendering="crispEdges"/><rect fill="#1e1e1e" x="573.4" y="196.7" width="97.6" height="24.65" shape-rendering="crispEdges"/><rect fill="#1e1e1e" x="671" y="196.7" width="134.2" height="24.65" shape-rendering="crispEdges"/><rect fill="#1e1e1e" x="805.2" y="196.7" width="73.2" height="24.65" shape-rendering="crispEdges"/><rect fill="#1e1e1e" x="878.4" y="196.7" width="85.4" height="24.65" shape-rendering="crispEdges"/><rect fill="#1e1e1e" x="963.8" y="196.7" width="12.2" height="24.65" shape-rendering="crispEdges"/><rect fill="#1e1e1e" x="0" y="221.1" width="231.8" height="24.65" shape-rendering="crispEdges"/><rect fill="#1e1e1e" x="231.8" y="221.1" width="12.2" height="24.65" shape-rendering="crispEdges"/><rect fill="#1e1e1e" x="244" y="221.1" width="170.8" height="24.65" shape-rendering="crispEdges"/><rect fill="#1e1e1e" x="414.8" y="221.1" width="158.6" height="24.65" shape-rendering="crispEdges"/><rect fill="#1e1e1e" x="573.4" y="221.1" width="97.6" height="24.65" shape-rendering="crispEdges"/><rect fill="#1e1e1e" x="671" y="221.1" width="134.2" height="24.65" shape-rendering="crispEdges"/><rect fill="#1e1e1e" x="805.2" y="221.1" width="73.2" height="24.65" shape-rendering="crispEdges"/><rect fill="#1e1e1e" x="878.4" y="221.1" width="85.4" height="24.65" shape-rendering="crispEdges"/><rect fill="#1e1e1e" x="963.8" y="221.1" width="12.2" height="24.65" shape-rendering="crispEdges"/><rect fill="#1e1e1e" x="0" y="245.5" width="231.8" height="24.65" shape-rendering="crispEdges"/><rect fill="#1e1e1e" x="231.8" y="245.5" width="12.2" height="24.65" shape-rendering="crispEdges"/><rect fill="#1e1e1e" x="244" y="245.5" width="170.8" height="24.65" shape-rendering="crispEdges"/><rect fill="#1e1e1e" x="414.8" y="245.5" width="158.6" height="24.65" shape-rendering="crispEdges"/><rect fill="#1e1e1e" x="573.4" y="245.5" width="97.6" height="24.65" shape-rendering="crispEdges"/><rect fill="#1e1e1e" x="671" y="245.5" width="134.2" height="24.65" shape-rendering="crispEdges"/><rect fill="#1e1e1e" x="805.2" y="245.5" width="73.2" height="24.65" shape-rendering="crispEdges"/><rect fill="#1e1e1e" x="878.4" y="245.5" width="85.4" height="24.65" shape-rendering="crispEdges"/><rect fill="#1e1e1e" x="963.8" y="245.5" width="12.2" height="24.65" shape-rendering="crispEdges"/><rect fill="#1e1e1e" x="0" y="269.9" width="231.8" height="24.65" shape-rendering="crispEdges"/><rect fill="#1e1e1e" x="231.8" y="269.9" width="12.2" height="24.65" shape-rendering="crispEdges"/><rect fill="#1e1e1e" x="244" y="269.9" width="732" height="24.65" shape-rendering="crispEdges"/><rect fill="#1e1e1e" x="0" y="294.3" width="231.8" height="24.65" shape-rendering="crispEdges"/><rect fill="#1e1e1e" x="231.8" y="294.3" width="12.2" height="24.65" shape-rendering="crispEdges"/><rect fill="#1e1e1e" x="244" y="294.3" width="732" height="24.65" shape-rendering="crispEdges"/><rect fill="#1e1e1e" x="0" y="318.7" width="231.8" height="24.65" shape-rendering="crispEdges"/><rect fill="#1e1e1e" x="231.8" y="318.7" width="12.2" height="24.65" shape-rendering="crispEdges"/><rect fill="#003054" x="244" y="318.7" width="12.2" height="24.65" shape-rendering="crispEdges"/><rect fill="#003054" x="256.2" y="318.7" width="12.2" height="24.65" shape-rendering="crispEdges"/><rect fill="#003054" x="268.4" y="318.7" width="12.2" height="24.65" shape-rendering="crispEdges"/><rect fill="#003054" x="280.6" y="318.7" width="12.2" height="24.65" shape-rendering="crispEdges"/><rect fill="#003054" x="292.8" y="318.7" width="12.2" height="24.65" shape-rendering="crispEdges"/><rect fill="#003054" x="305" y="318.7" width="12.2" height="24.65" shape-rendering="crispEdges"/><rect fill="#003054" x="317.2" y="318.7" width="12.2" height="24.65" shape-rendering="crispEdges"/><rect fill="#003054" x="329.4" y="318.7" width="12.2" height="24.65" shape-rendering="crispEdges"/><rect fill="#003054" x="341.6" y="318.7" width="12.2" height="24.65" shape-rendering="crispEdges"/><rect fill="#003054" x="353.8" y="318.7" width="12.2" height="24.65" shape-rendering="crispEdges"/><rect fill="#003054" x="366" y="318.7" width="12.2" height="24.65" shape-rendering="crispEdges"/><rect fill="#003054" x="378.2" y="318.7" width="12.2" height="24.65" shape-rendering="crispEdges"/><rect fill="#003054" x="390.4" y="318.7" width="12.2" height="24.65" shape-rendering="crispEdges"/><rect fill="#003054" x="402.6" y="318.7" width="12.2" height="24.65" shape-rendering="crispEdges"/><rect fill="#003054" x="414.8" y="318.7" width="12.2" height="24.65" shape-rendering="crispEdges"/><rect fill="#003054" x="427" y="318.7" width="12.2" height="24.65" shape-rendering="crispEdges"/><rect fill="#003054" x="439.2" y="318.7" width="12.2" height="24.65" shape-rendering="crispEdges"/><rect fill="#003054" x="451.4" y="318.7" width="12.2" height="24.65" shape-rendering="crispEdges"/><rect fill="#003054" x="463.6" y="318.7" width="12.2" height="24.65" shape-rendering="crispEdges"/><rect fill="#003054" x="475.8" y="318.7" width="12.2" height="24.65" shape-rendering="crispEdges"/><rect fill="#003054" x="488" y="318.7" width="12.2" height="24.65" shape-rendering="crispEdges"/><rect fill="#003054" x="500.2" y="318.7" width="12.2" height="24.65" shape-rendering="crispEdges"/><rect fill="#003054" x="512.4" y="318.7" width="12.2" height="24.65" shape-rendering="crispEdges"/><rect fill="#003054" x="524.6" y="318.7" width="12.2" height="24.65" shape-rendering="crispEdges"/><rect fill="#003054" x="536.8" y="318.7" width="12.2" height="24.65" shape-rendering="crispEdges"/><rect fill="#003054" x="549" y="318.7" width="12.2" height="24.65" shape-rendering="crispEdges"/><rect fill="#003054" x="561.2" y="318.7" width="12.2" height="24.65" shape-rendering="crispEdges"/><rect fill="#003054" x="573.4" y="318.7" width="12.2" height="24.65" shape-rendering="crispEdges"/><rect fill="#003054" x="585.6" y="318.7" width="12.2" height="24.65" shape-rendering="crispEdges"/><rect fill="#003054" x="597.8" y="318.7" width="12.2" height="24.65" shape-rendering="crispEdges"/><rect fill="#003054" x="610" y="318.7" width="12.2" height="24.65" shape-rendering="crispEdges"/><rect fill="#003054" x="622.2" y="318.7" width="12.2" height="24.65" shape-rendering="crispEdges"/><rect fill="#003054" x="634.4" y="318.7" width="12.2" height="24.65" shape-rendering="crispEdges"/><rect fill="#003054" x="646.6" y="318.7" width="12.2" height="24.65" shape-rendering="crispEdges"/><rect fill="#003054" x="658.8" y="318.7" width="12.2" height="24.65" shape-rendering="crispEdges"/><rect fill="#003054" x="671" y="318.7" width="12.2" height="24.65" shape-rendering="crispEdges"/><rect fill="#003054" x="683.2" y="318.7" width="12.2" height="24.65" shape-rendering="crispEdges"/><rect fill="#003054" x="695.4" y="318.7" width="12.2" height="24.65" shape-rendering="crispEdges"/><rect fill="#003054" x="707.6" y="318.7" width="12.2" height="24.65" shape-rendering="crispEdges"/><rect fill="#003054" x="719.8" y="318.7" width="12.2" height="24.65" shape-rendering="crispEdges"/><rect fill="#003054" x="732" y="318.7" width="12.2" height="24.65" shape-rendering="crispEdges"/><rect fill="#003054" x="744.2" y="318.7" width="12.2" height="24.65" shape-rendering="crispEdges"/><rect fill="#003054" x="756.4" y="318.7" width="12.2" height="24.65" shape-rendering="crispEdges"/><rect fill="#003054" x="768.6" y="318.7" width="12.2" height="24.65" shape-rendering="crispEdges"/><rect fill="#003054" x="780.8" y="318.7" width="12.2" height="24.65" shape-rendering="crispEdges"/><rect fill="#003054" x="793" y="318.7" width="12.2" height="24.65" shape-rendering="crispEdges"/><rect fill="#003054" x="805.2" y="318.7" width="12.2" height="24.65" shape-rendering="crispEdges"/><rect fill="#003054" x="817.4" y="318.7" width="12.2" height="24.65" shape-rendering="crispEdges"/><rect fill="#003054" x="829.6" y="318.7" width="12.2" height="24.65" shape-rendering="crispEdges"/><rect fill="#003054" x="841.8" y="318.7" width="12.2" height="24.65" shape-rendering="crispEdges"/><rect fill="#003054" x="854" y="318.7" width="12.2" height="24.65" shape-rendering="crispEdges"/><rect fill="#003054" x="866.2" y="318.7" width="12.2" height="24.65" shape-rendering="crispEdges"/><rect fill="#000000" x="878.4" y="318.7" width="12.2" height="24.65" shape-rendering="crispEdges"/><rect fill="#000000" x="890.6" y="318.7" width="12.2" height="24.65" shape-rendering="crispEdges"/><rect fill="#000000" x="902.8" y="318.7" width="12.2" height="24.65" shape-rendering="crispEdges"/><rect fill="#000000" x="915" y="318.7" width="12.2" height="24.65" shape-rendering="crispEdges"/><rect fill="#000000" x="927.2" y="318.7" width="12.2" height="24.65" shape-rendering="crispEdges"/><rect fill="#000000" x="939.4" y="318.7" width="12.2" height="24.65" shape-rendering="crispEdges"/><rect fill="#000000" x="951.6" y="318.7" width="12.2" height="24.65" shape-rendering="crispEdges"/><rect fill="#000000" x="963.8" y="318.7" width="12.2" height="24.65" shape-rendering="crispEdges"/><rect fill="#1e1e1e" x="0" y="343.1" width="231.8" height="24.65" shape-rendering="crispEdges"/><rect fill="#1e1e1e" x="231.8" y="343.1" width="12.2" height="24.65" shape-rendering="crispEdges"/><rect fill="#1e1e1e" x="244" y="343.1" width="732" height="24.65" shape-rendering="crispEdges"/><rect fill="#1e1e1e" x="0" y="367.5" width="231.8" height="24.65" shape-rendering="crispEdges"/><rect fill="#1e1e1e" x="231.8" y="367.5" width="12.2" height="24.65" shape-rendering="crispEdges"/><rect fill="#1e1e1e" x="244" y="367.5" width="732" height="24.65" shape-rendering="crispEdges"/><rect fill="#1e1e1e" x="0" y="391.9" width="231.8" height="24.65" shape-rendering="crispEdges"/><rect fill="#1e1e1e" x="231.8" y="391.9" width="12.2" height="24.65" shape-rendering="crispEdges"/><rect fill="#1e1e1e" x="244" y="391.9" width="12.2" height="24.65" shape-rendering="crispEdges"/><rect fill="#1e1e1e" x="256.2" y="391.9" width="341.6" height="24.65" shape-rendering="crispEdges"/><rect fill="#1e1e1e" x="597.8" y="391.9" width="366" height="24.65" shape-rendering="crispEdges"/><rect fill="#1e1e1e" x="963.8" y="391.9" width="12.2" height="24.65" shape-rendering="crispEdges"/><rect fill="#1e1e1e" x="0" y="416.3" width="231.8" height="24.65" shape-rendering="crispEdges"/><rect fill="#1e1e1e" x="231.8" y="416.3" width="12.2" height="24.65" shape-rendering="crispEdges"/><rect fill="#1e1e1e" x="244" y="416.3" width="12.2" height="24.65" shape-rendering="crispEdges"/><rect fill="#1e1e1e" x="256.2" y="416.3" width="707.6" height="24.65" shape-rendering="crispEdges"/><rect fill="#1e1e1e" x="963.8" y="416.3" width="12.2" height="24.65" shape-rendering="crispEdges"/><rect fill="#1e1e1e" x="0" y="440.7" width="231.8" height="24.65" shape-rendering="crispEdges"/><rect fill="#1e1e1e" x="231.8" y="440.7" width="12.2" height="24.65" shape-rendering="crispEdges"/><rect fill="#1e1e1e" x="244" y="440.7" width="12.2" height="24.65" shape-rendering="crispEdges"/><rect fill="#1e1e1e" x="256.2" y="440.7" width="707.6" height="24.65" shape-rendering="crispEdges"/><rect fill="#1e1e1e" x="963.8" y="440.7" width="12.2" height="24.65" shape-rendering="crispEdges"/><rect fill="#1e1e1e" x="0" y="465.1" width="231.8" height="24.65" shape-rendering="crispEdges"/><rect fill="#1e1e1e" x="231.8" y="465.1" width="12.2" height="24.65" shape-rendering="crispEdges"/><rect fill="#1e1e1e" x="244" y="465.1" width="732" height="24.65" shape-rendering="crispEdges"/><rect fill="#1e1e1e" x="0" y="489.5" width="231.8" height="24.65" shape-rendering="crispEdges"/><rect fill="#1e1e1e" x="231.8" y="489.5" width="12.2" height="24.65" shape-rendering="crispEdges"/><rect fill="#1e1e1e" x="244" y="489.5" width="732" height="24.65" shape-rendering="crispEdges"/><rect fill="#1e1e1e" x="0" y="513.9" width="231.8" height="24.65" shape-rendering="crispEdges"/><rect fill="#1e1e1e" x="231.8" y="513.9" width="12.2" height="24.65" shape-rendering="crispEdges"/><rect fill="#1e1e1e" x="244" y="513.9" width="732" height="24.65" shape-rendering="crispEdges"/><rect fill="#0178d4" x="0" y="538.3" width="12.2" height="24.65" shape-rendering="crispEdges"/><rect fill="#0178d4" x="12.2" y="538.3" width="170.8" height="24.65" shape-rendering="crispEdges"/><rect fill="#0178d4" x="183" y="538.3" width="793" height="24.65" shape-rendering="crispEdges"/><rect fill="#242f38" x="0" y="562.7" width="829.6" height="24.65" shape-rendering="crispEdges"/><rect fill="#242f38" x="829.6" y="562.7" width="12.2" height="24.65" shape-rendering="crispEdges"/><rect fill="#242f38" x="841.8" y="562.7" width="24.4" height="24.65" shape-rendering="crispEdges"/><rect fill="#242f38" x="866.2" y="562.7" width="97.6" height="24.65" shape-rendering="crispEdges"/><rect fill="#242f38" x="963.8" y="562.7" width="12.2" height="24.65" shape-rendering="crispEdges"/>
    <g class="terminal-2797978833-matrix">
    <text class="terminal-2797978833-r2" x="12.2" y="20" textLength="12.2" clip-path="url(#terminal-2797978833-line-0)">⭘</text><text class="terminal-2797978833-r2" x="414.8" y="20" textLength="109.8" clip-path="url(#terminal-2797978833-line-0)">RocotoApp</text><text class="terminal-2797978833-r3" x="866.2" y="20" textLength="97.6" clip-path="url(#terminal-2797978833-line-0)">00:08:08</text><text class="terminal-2797978833-r1" x="976" y="20" textLength="12.2" clip-path="url(#terminal-2797978833-line-0)">
</text><text class="terminal-2797978833-r2" x="0" y="44.4" textLength="24.4" clip-path="url(#terminal-2797978833-line-1)">▼&#160;</text><text class="terminal-2797978833-r2" x="24.4" y="44.4" textLength="73.2" clip-path="url(#terminal-2797978833-line-1)">Cycles</text><text class="terminal-2797978833-r4" x="231.8" y="44.4" textLength="12.2" clip-path="url(#terminal-2797978833-line-1)">│</text><text class="terminal-2797978833-r1" x="976" y="44.4" textLength="12.2" clip-path="url(#terminal-2797978833-line-1)">
</text><text class="terminal-2797978833-r5" x="0" y="68.8" textLength="48.8" clip-path="url(#terminal-2797978833-line-2)">├──&#160;</text><text class="terminal-2797978833-r2" x="48.8" y="68.8" textLength="24.4" clip-path="url(#terminal-2797978833-line-2)">▶&#160;</text><text class="terminal-2797978833-r2" x="73.2" y="68.8" textLength="146.4" clip-path="url(#terminal-2797978833-line-2)">202310270000</text><text class="terminal-2797978833-r4" x="231.8" y="68.8" textLength="12.2" clip-path="url(#terminal-2797978833-line-2)">│</text><text class="terminal-2797978833-r6" x="256.2" y="68.8" textLength="12.2" clip-path="url(#terminal-2797978833-line-2)">▊</text><text class="terminal-2797978833-r4" x="268.4" y="68.8" textLength="683.2" clip-path="url(#terminal-2797978833-line-2)">▔▔▔▔▔▔▔▔▔▔▔▔▔▔▔▔▔▔▔▔▔▔▔▔▔▔▔▔▔▔▔▔▔▔▔▔▔▔▔▔▔▔▔▔▔▔▔▔▔▔▔▔▔▔▔▔</text><text class="terminal-2797978833-r4" x="951.6" y="68.8" textLength="12.2" clip-path="url(#terminal-2797978833-line-2)">▎</text><text class="terminal-2797978833-r1" x="976" y="68.8" textLength="12.2" clip-path="url(#terminal-2797978833-line-2)">
</text><text class="terminal-2797978833-r5" x="0" y="93.2" textLength="48.8" clip-path="url(#terminal-2797978833-line-3)">└──&#160;</text><text class="terminal-2797978833-r2" x="48.8" y="93.2" textLength="24.4" clip-path="url(#terminal-2797978833-line-3)">▶&#160;</text><text class="terminal-2797978833-r2" x="73.2" y="93.2" textLength="146.4" clip-path="url(#terminal-2797978833-line-3)">202310271200</text><text class="terminal-2797978833-r4" x="231.8" y="93.2" textLength="12.2" clip-path="url(#terminal-2797978833-line-3)">│</text><text class="terminal-2797978833-r6" x="256.2" y="93.2" textLength="12.2" clip-path="url(#terminal-2797978833-line-3)">▊</text><text class="terminal-2797978833-r2" x="292.8" y="93.2" textLength="61" clip-path="url(#terminal-2797978833-line-3)">model</text><text class="terminal-2797978833-r4" x="951.6" y="93.2" textLength="12.2" clip-path="url(#terminal-2797978833-line-3)">▎</text><text class="terminal-2797978833-r1" x="976" y="93.2" textLength="12.2" clip-path="url(#terminal-2797978833-line-3)">
</text><text class="terminal-2797978833-r4" x="231.8" y="117.6" textLength="12.2" clip-path="url(#terminal-2797978833-line-4)">│</text><text class="terminal-2797978833-r6" x="256.2" y="117.6" textLength="12.2" clip-path="url(#terminal-2797978833-line-4)">▊</text><text class="terminal-2797978833-r4" x="268.4" y="117.6" textLength="683.2" clip-path="url(#terminal-2797978833-line-4)">▁▁▁▁▁▁▁▁▁▁▁▁▁▁▁▁▁▁▁▁▁▁▁▁▁▁▁▁▁▁▁▁▁▁▁▁▁▁▁▁▁▁▁▁▁▁▁▁▁▁▁▁▁▁▁▁</text><text class="terminal-2797978833-r4" x="951.6" y="117.6" textLength="12.2" clip-path="url(#terminal-2797978833-line-4)">▎</text><text class="terminal-2797978833-r1" x="976" y="117.6" textLength="12.2" clip-path="url(#terminal-2797978833-line-4)">
</text><text class="terminal-2797978833-r4" x="231.8" y="142" textLength="12.2" clip-path="url(#terminal-2797978833-line-5)">│</text><text class="terminal-2797978833-r1" x="976" y="142" textLength="12.2" clip-path="url(#terminal-2797978833-line-5)">
</text><text class="terminal-2797978833-r4" x="231.8" y="166.4" textLength="12.2" clip-path="url(#terminal-2797978833-line-6)">│</text><text class="terminal-2797978833-r8" x="244" y="166.4" textLength="170.8" clip-path="url(#terminal-2797978833-line-6)">&#160;Cycle&#160;&#160;&#160;&#160;&#160;&#160;&#160;&#160;</text><text class="terminal-2797978833-r8" x="414.8" y="166.4" textLength="158.6" clip-path="url(#terminal-2797978833-line-6)">&#160;Task&#160;&#160;&#160;&#160;&#160;&#160;&#160;&#160;</text><text class="terminal-2797978833-r8" x="573.4" y="166.4" textLength="97.6" clip-path="url(#terminal-2797978833-line-6)">&#160;Job&#160;ID&#160;</text><text class="terminal-2797978833-r8" x="671" y="166.4" textLength="134.2" clip-path="url(#terminal-2797978833-line-6)">&#160;State&#160;&#160;&#160;&#160;&#160;</text><text class="terminal-2797978833-r8" x="805.2" y="166.4" textLength="73.2" clip-path="url(#terminal-2797978833-line-6)">&#160;Exit&#160;</text><text class="terminal-2797978833-r8" x="878.4" y="166.4" textLength="85.4" clip-path="url(#terminal-2797978833-line-6)">&#160;Tries&#160;</text><text class="terminal-2797978833-r1" x="976" y="166.4" textLength="12.2" clip-path="url(#terminal-2797978833-line-6)">
</text><text class="terminal-2797978833-r4" x="231.8" y="190.8" textLength="12.2" clip-path="url(#terminal-2797978833-line-7)">│</text><text class="terminal-2797978833-r2" x="244" y="190.8" textLength="170.8" clip-path="url(#terminal-2797978833-line-7)">&#160;202310270000&#160;</text><text class="terminal-2797978833-r2" x="414.8" y="190.8" textLength="158.6" clip-path="url(#terminal-2797978833-line-7)">&#160;run_model_A&#160;</text><text class="terminal-2797978833-r2" x="573.4" y="190.8" textLength="97.6" clip-path="url(#terminal-2797978833-line-7)">&#160;1002&#160;&#160;&#160;</text><text class="terminal-2797978833-r2" x="671" y="190.8" textLength="134.2" clip-path="url(#terminal-2797978833-line-7)">&#160;SUCCEEDED&#160;</text><text class="terminal-2797978833-r2" x="805.2" y="190.8" textLength="73.2" clip-path="url(#terminal-2797978833-line-7)">&#160;0&#160;&#160;&#160;&#160;</text><text class="terminal-2797978833-r2" x="878.4" y="190.8" textLength="85.4" clip-path="url(#terminal-2797978833-line-7)">&#160;1&#160;&#160;&#160;&#160;&#160;</text><text class="terminal-2797978833-r1" x="976" y="190.8" textLength="12.2" clip-path="url(#terminal-2797978833-line-7)">
</text><text class="terminal-2797978833-r4" x="231.8" y="215.2" textLength="12.2" clip-path="url(#terminal-2797978833-line-8)">│</text><text class="terminal-2797978833-r2" x="244" y="215.2" textLength="170.8" clip-path="url(#terminal-2797978833-line-8)">&#160;202310270000&#160;</text><text class="terminal-2797978833-r2" x="414.8" y="215.2" textLength="158.6" clip-path="url(#terminal-2797978833-line-8)">&#160;run_model_B&#160;</text><text class="terminal-2797978833-r2" x="573.4" y="215.2" textLength="97.6" clip-path="url(#terminal-2797978833-line-8)">&#160;1003&#160;&#160;&#160;</text><text class="terminal-2797978833-r2" x="671" y="215.2" textLength="134.2" clip-path="url(#terminal-2797978833-line-8)">&#160;SUCCEEDED&#160;</text><text class="terminal-2797978833-r2" x="805.2" y="215.2" textLength="73.2" clip-path="url(#terminal-2797978833-line-8)">&#160;0&#160;&#160;&#160;&#160;</text><text class="terminal-2797978833-r2" x="878.4" y="215.2" textLength="85.4" clip-path="url(#terminal-2797978833-line-8)">&#160;1&#160;&#160;&#160;&#160;&#160;</text><text class="terminal-2797978833-r1" x="976" y="215.2" textLength="12.2" clip-path="url(#terminal-2797978833-line-8)">
</text><text class="terminal-2797978833-r4" x="231.8" y="239.6" textLength="12.2" clip-path="url(#terminal-2797978833-line-9)">│</text><text class="terminal-2797978833-r2" x="244" y="239.6" textLength="170.8" clip-path="url(#terminal-2797978833-line-9)">&#160;202310271200&#160;</text><text class="terminal-2797978833-r2" x="414.8" y="239.6" textLength="158.6" clip-path="url(#terminal-2797978833-line-9)">&#160;run_model_A&#160;</text><text class="terminal-2797978833-r2" x="573.4" y="239.6" textLength="97.6" clip-path="url(#terminal-2797978833-line-9)">&#160;2002&#160;&#160;&#160;</text><text class="terminal-2797978833-r2" x="671" y="239.6" textLength="134.2" clip-path="url(#terminal-2797978833-line-9)">&#160;DEAD&#160;&#160;&#160;&#160;&#160;&#160;</text><text class="terminal-2797978833-r2" x="805.2" y="239.6" textLength="73.2" clip-path="url(#terminal-2797978833-line-9)">&#160;1&#160;&#160;&#160;&#160;</text><text class="terminal-2797978833-r2" x="878.4" y="239.6" textLength="85.4" clip-path="url(#terminal-2797978833-line-9)">&#160;1&#160;&#160;&#160;&#160;&#160;</text><text class="terminal-2797978833-r1" x="976" y="239.6" textLength="12.2" clip-path="url(#terminal-2797978833-line-9)">
</text><text class="terminal-2797978833-r4" x="231.8" y="264" textLength="12.2" clip-path="url(#terminal-2797978833-line-10)">│</text><text class="terminal-2797978833-r2" x="244" y="264" textLength="170.8" clip-path="url(#terminal-2797978833-line-10)">&#160;202310271200&#160;</text><text class="terminal-2797978833-r2" x="414.8" y="264" textLength="158.6" clip-path="url(#terminal-2797978833-line-10)">&#160;run_model_B&#160;</text><text class="terminal-2797978833-r2" x="573.4" y="264" textLength="97.6" clip-path="url(#terminal-2797978833-line-10)">&#160;2003&#160;&#160;&#160;</text><text class="terminal-2797978833-r2" x="671" y="264" textLength="134.2" clip-path="url(#terminal-2797978833-line-10)">&#160;RUNNING&#160;&#160;&#160;</text><text class="terminal-2797978833-r2" x="805.2" y="264" textLength="73.2" clip-path="url(#terminal-2797978833-line-10)">&#160;-&#160;&#160;&#160;&#160;</text><text class="terminal-2797978833-r2" x="878.4" y="264" textLength="85.4" clip-path="url(#terminal-2797978833-line-10)">&#160;1&#160;&#160;&#160;&#160;&#160;</text><text class="terminal-2797978833-r1" x="976" y="264" textLength="12.2" clip-path="url(#terminal-2797978833-line-10)">
</text><text class="terminal-2797978833-r4" x="231.8" y="288.4" textLength="12.2" clip-path="url(#terminal-2797978833-line-11)">│</text><text class="terminal-2797978833-r1" x="976" y="288.4" textLength="12.2" clip-path="url(#terminal-2797978833-line-11)">
</text><text class="terminal-2797978833-r4" x="231.8" y="312.8" textLength="12.2" clip-path="url(#terminal-2797978833-line-12)">│</text><text class="terminal-2797978833-r1" x="976" y="312.8" textLength="12.2" clip-path="url(#terminal-2797978833-line-12)">
</text><text class="terminal-2797978833-r4" x="231.8" y="337.2" textLength="12.2" clip-path="url(#terminal-2797978833-line-13)">│</text><text class="terminal-2797978833-r9" x="878.4" y="337.2" textLength="12.2" clip-path="url(#terminal-2797978833-line-13)">▎</text><text class="terminal-2797978833-r1" x="976" y="337.2" textLength="12.2" clip-path="url(#terminal-2797978833-line-13)">
</text><text class="terminal-2797978833-r4" x="231.8" y="361.6" textLength="12.2" clip-path="url(#terminal-2797978833-line-14)">│</text><text class="terminal-2797978833-r4" x="244" y="361.6" textLength="732" clip-path="url(#terminal-2797978833-line-14)">════════════════════════════════════════════════════════════</text><text class="terminal-2797978833-r1" x="976" y="361.6" textLength="12.2" clip-path="url(#terminal-2797978833-line-14)">
</text><text class="terminal-2797978833-r4" x="231.8" y="386" textLength="12.2" clip-path="url(#terminal-2797978833-line-15)">│</text><text class="terminal-2797978833-r1" x="976" y="386" textLength="12.2" clip-path="url(#terminal-2797978833-line-15)">
</text><text class="terminal-2797978833-r4" x="231.8" y="410.4" textLength="12.2" clip-path="url(#terminal-2797978833-line-16)">│</text><text class="terminal-2797978833-r2" x="256.2" y="410.4" textLength="341.6" clip-path="url(#terminal-2797978833-line-16)">Select&#160;a&#160;task&#160;to&#160;see&#160;details</text><text class="terminal-2797978833-r1" x="976" y="410.4" textLength="12.2" clip-path="url(#terminal-2797978833-line-16)">
</text><text class="terminal-2797978833-r4" x="231.8" y="434.8" textLength="12.2" clip-path="url(#terminal-2797978833-line-17)">│</text><text class="terminal-2797978833-r1" x="976" y="434.8" textLength="12.2" clip-path="url(#terminal-2797978833-line-17)">
</text><text class="terminal-2797978833-r4" x="231.8" y="459.2" textLength="12.2" clip-path="url(#terminal-2797978833-line-18)">│</text><text class="terminal-2797978833-r1" x="976" y="459.2" textLength="12.2" clip-path="url(#terminal-2797978833-line-18)">
</text><text class="terminal-2797978833-r4" x="231.8" y="483.6" textLength="12.2" clip-path="url(#terminal-2797978833-line-19)">│</text><text class="terminal-2797978833-r1" x="976" y="483.6" textLength="12.2" clip-path="url(#terminal-2797978833-line-19)">
</text><text class="terminal-2797978833-r4" x="231.8" y="508" textLength="12.2" clip-path="url(#terminal-2797978833-line-20)">│</text><text class="terminal-2797978833-r1" x="976" y="508" textLength="12.2" clip-path="url(#terminal-2797978833-line-20)">
</text><text class="terminal-2797978833-r4" x="231.8" y="532.4" textLength="12.2" clip-path="url(#terminal-2797978833-line-21)">│</text><text class="terminal-2797978833-r1" x="976" y="532.4" textLength="12.2" clip-path="url(#terminal-2797978833-line-21)">
</text><text class="terminal-2797978833-r10" x="12.2" y="556.8" textLength="170.8" clip-path="url(#terminal-2797978833-line-22)">Path:&#160;Workflow</text><text class="terminal-2797978833-r1" x="976" y="556.8" textLength="12.2" clip-path="url(#terminal-2797978833-line-22)">
</text><text class="terminal-2797978833-r11" x="829.6" y="581.2" textLength="12.2" clip-path="url(#terminal-2797978833-line-23)">▏</text><text class="terminal-2797978833-r12" x="841.8" y="581.2" textLength="24.4" clip-path="url(#terminal-2797978833-line-23)">^p</text><text class="terminal-2797978833-r2" x="866.2" y="581.2" textLength="97.6" clip-path="url(#terminal-2797978833-line-23)">&#160;palette</text>
    </g>
    </g>
</svg>
